<?xml version="1.0" standalone="no"?>
<!DOCTYPE svg PUBLIC "-//W3C//DTD SVG 20010904//EN"
 "http://www.w3.org/TR/2001/REC-SVG-20010904/DTD/svg10.dtd">
<svg version="1.0" xmlns="http://www.w3.org/2000/svg"
 width="3099.000000pt" height="2100.000000pt" viewBox="0 0 3099.000000 2100.000000"
 preserveAspectRatio="xMidYMid meet">

<g transform="translate(0.000000,2100.000000) scale(0.100000,-0.100000)"
fill="#000000" stroke="none">
<path d="M12325 18996 l-3070 -1773 -3 -1562 c-1 -982 1 -1561 7 -1559 6 1
451 257 990 568 l980 565 1 421 0 421 2553 1474 c1403 810 2787 1609 3075
1775 l522 302 -989 571 c-545 314 -991 571 -993 571 -2 -1 -1384 -799 -3073
-1774z"/>
<path d="M14040 16015 l-4785 -2764 0 -1568 0 -1567 983 -568 c541 -312 986
-568 988 -568 2 0 4 703 4 1563 l0 1562 4790 2765 c2634 1521 4789 2768 4787
2773 -3 11 -1957 1137 -1970 1136 -7 0 -2165 -1244 -4797 -2764z"/>
<path d="M18468 14598 l-3068 -1772 0 -1144 0 -1144 23 14 c43 28 4117 2378
4132 2384 14 6 15 -82 13 -836 l-3 -842 -2070 -1195 c-1138 -658 -2077 -1198
-2086 -1200 -10 -3 -725 404 -1700 967 -926 535 -1699 981 -1716 992 l-33 20
0 -1144 0 -1143 1303 -753 c717 -414 1311 -758 1319 -765 15 -11 12 -90 -37
-942 -30 -511 -55 -938 -55 -947 0 -16 -15 -18 -162 -18 -176 0 -634 -13
-1028 -30 -1407 -60 -2315 -177 -2315 -300 0 -154 1291 -286 3250 -331 563
-13 2336 -7 2785 10 1039 39 1634 78 2143 142 1571 197 200 453 -2743 512
l-105 2 -54 949 c-46 804 -52 950 -40 957 8 5 1209 698 2669 1542 l2655 1533
3 3127 c1 1720 -1 3127 -5 3127 -5 -1 -1388 -798 -3075 -1772z"/>
<path d="M2355 2309 c-388 -50 -661 -296 -730 -659 -21 -111 -21 -309 0 -420
81 -423 419 -680 894 -680 374 0 662 162 807 455 74 150 88 219 88 435 0 159
-3 196 -22 265 -80 293 -296 504 -594 579 -138 35 -295 43 -443 25z m290 -294
c138 -36 240 -120 302 -250 45 -95 63 -187 63 -325 0 -144 -19 -233 -69 -335
-87 -174 -232 -265 -425 -265 -177 0 -328 83 -412 225 -120 205 -117 564 6
755 62 97 163 169 275 196 71 17 190 17 260 -1z"/>
<path d="M7540 2305 c-167 -26 -342 -111 -426 -208 -20 -23 -51 -71 -68 -107
-28 -59 -31 -74 -31 -165 0 -88 3 -107 27 -158 38 -80 79 -130 152 -181 86
-62 137 -85 336 -156 272 -97 347 -127 394 -159 75 -52 97 -138 53 -216 -17
-31 -37 -48 -91 -74 -63 -32 -77 -35 -180 -39 -89 -3 -128 0 -200 17 -95 23
-227 80 -300 130 -24 17 -48 31 -53 31 -5 0 -58 -50 -118 -111 l-110 -110 28
-24 c75 -66 253 -149 393 -185 184 -47 427 -52 592 -11 328 82 514 312 462
573 -26 137 -107 234 -256 310 -49 25 -201 85 -339 133 -137 48 -269 98 -291
111 -145 83 -135 224 21 296 44 20 65 23 180 23 116 0 140 -3 216 -28 47 -16
115 -46 150 -67 l63 -38 96 100 c52 56 96 104 98 109 2 4 -25 26 -59 49 -203
139 -477 196 -739 155z"/>
<path d="M11390 2304 c-224 -36 -394 -119 -540 -264 -79 -78 -104 -111 -144
-188 -71 -139 -98 -254 -98 -422 0 -146 14 -232 57 -345 125 -333 466 -534
907 -535 236 0 467 63 623 170 l45 31 0 384 0 385 -360 0 -360 0 0 -135 0
-135 180 0 180 0 -2 -177 -3 -178 -60 -24 c-48 -19 -83 -25 -175 -29 -323 -11
-536 131 -606 408 -23 89 -23 274 -1 360 56 213 207 362 412 405 178 37 357 7
493 -85 l57 -39 105 105 105 105 -30 25 c-90 74 -236 141 -370 169 -113 24
-299 28 -415 9z"/>
<path d="M14955 2304 c-451 -69 -725 -395 -725 -864 0 -286 106 -535 294 -691
79 -65 237 -143 351 -171 77 -20 115 -23 270 -22 152 0 192 4 257 22 184 50
280 105 404 227 77 77 98 106 138 185 58 118 83 205 98 342 27 257 -42 515
-186 690 -189 228 -539 338 -901 282z m320 -289 c169 -44 288 -176 342 -375
24 -90 24 -310 0 -400 -56 -208 -186 -350 -358 -389 -65 -15 -187 -13 -254 4
-166 44 -289 178 -342 375 -14 49 -18 103 -18 215 0 129 3 160 23 225 58 185
170 300 333 344 72 19 201 20 274 1z"/>
<path d="M240 1435 l0 -855 200 0 200 0 0 345 0 345 365 0 365 0 0 140 0 140
-362 2 -363 3 0 225 0 225 423 3 422 2 0 140 0 140 -625 0 -625 0 0 -855z"/>
<path d="M3710 1436 l0 -856 200 0 200 0 2 322 3 323 145 2 145 3 209 -325
209 -325 224 0 224 0 -114 168 c-63 92 -169 248 -236 346 -67 99 -118 182
-114 186 4 3 28 15 53 25 215 91 320 243 320 464 0 230 -101 372 -321 452
-152 55 -203 60 -696 66 l-453 5 0 -856z m861 570 c156 -33 219 -103 219 -238
-1 -129 -70 -211 -215 -254 -48 -14 -99 -18 -260 -18 l-200 -1 -3 250 c-1 137
0 255 3 262 7 19 367 17 456 -1z"/>
<path d="M5480 1435 l0 -855 635 0 635 0 0 140 0 140 -435 0 -435 0 0 235 0
235 360 0 360 0 0 140 0 140 -360 0 -360 0 0 200 0 200 420 0 420 0 0 140 0
140 -620 0 -620 0 0 -855z"/>
<path d="M8430 2150 l0 -140 285 0 285 0 0 -715 0 -715 200 0 200 0 2 713 3
712 288 3 287 2 0 140 0 140 -775 0 -775 0 0 -140z"/>
<path d="M12570 1435 l0 -855 200 0 200 0 0 325 0 325 143 0 144 0 209 -325
209 -325 224 0 223 0 -18 28 c-9 15 -114 168 -231 341 -118 173 -215 319 -216
323 -1 5 28 21 65 37 217 93 332 277 314 502 -23 287 -220 436 -622 469 -65 5
-282 10 -481 10 l-363 0 0 -855z m853 570 c167 -35 240 -132 216 -285 -15 -99
-79 -163 -198 -201 -55 -18 -99 -22 -268 -27 l-203 -5 0 267 0 266 193 0 c129
0 214 -5 260 -15z"/>
<path d="M16333 1718 c3 -555 4 -576 25 -658 36 -135 84 -223 171 -311 86 -86
172 -134 307 -171 67 -18 108 -21 269 -22 226 -1 302 12 442 80 165 79 268
212 325 419 22 77 22 98 26 658 l3 577 -190 0 -190 0 -3 -562 c-4 -511 -6
-568 -22 -618 -64 -194 -170 -270 -377 -270 -214 0 -331 93 -375 299 -11 52
-14 184 -14 609 l0 542 -201 0 -200 0 4 -572z"/>
<path d="M18280 1436 l0 -856 205 0 205 0 0 304 0 304 238 5 c262 6 347 19
484 76 239 101 363 311 329 561 -32 240 -197 381 -513 436 -73 13 -186 17
-520 21 l-428 5 0 -856z m820 573 c173 -28 249 -107 250 -259 0 -130 -57 -215
-176 -259 -77 -29 -171 -40 -341 -41 l-143 0 0 285 0 285 173 0 c94 0 201 -5
237 -11z"/>
<path d="M20510 1435 l0 -855 615 0 615 0 0 140 0 140 -415 0 -415 0 0 715 0
715 -200 0 -200 0 0 -855z"/>
<path d="M21980 1435 l0 -855 200 0 200 0 0 855 0 855 -200 0 -200 0 0 -855z"/>
<path d="M22780 1435 l0 -855 181 0 181 0 -5 438 c-4 414 -14 562 -50 812 -1
8 2 17 7 20 4 3 43 -83 86 -190 43 -107 150 -357 237 -555 l159 -360 119 0
119 0 138 315 c117 266 291 677 328 774 22 59 25 11 7 -126 -15 -116 -19 -237
-24 -635 l-5 -493 181 0 181 0 0 855 0 855 -222 -2 -223 -3 -163 -385 c-90
-212 -194 -466 -231 -565 -38 -99 -72 -180 -77 -179 -5 0 -39 79 -75 175 -37
96 -143 350 -236 564 l-170 390 -221 3 -222 2 0 -855z"/>
<path d="M25010 1435 l0 -855 205 0 205 0 0 855 0 855 -205 0 -205 0 0 -855z"/>
<path d="M25640 2150 l0 -140 285 0 285 0 0 -715 0 -715 200 0 200 0 2 713 3
712 288 3 287 2 0 140 0 140 -775 0 -775 0 0 -140z"/>
<path d="M27420 1435 l0 -855 635 0 635 0 0 140 0 140 -435 0 -435 0 0 235 0
235 355 0 355 0 0 140 0 140 -355 0 -355 0 0 200 0 200 420 0 420 0 0 140 0
140 -620 0 -620 0 0 -855z"/>
<path d="M28990 1436 l0 -856 339 0 c246 0 372 4 455 15 401 53 654 254 743
593 22 84 25 118 25 252 0 133 -3 168 -25 251 -71 271 -241 444 -525 533 -159
50 -239 58 -639 63 l-373 5 0 -856z m766 560 c194 -48 325 -176 371 -362 22
-93 22 -295 0 -387 -48 -193 -173 -319 -372 -373 -35 -9 -121 -18 -207 -21
l-148 -6 0 588 0 588 148 -6 c81 -3 175 -13 208 -21z"/>
</g>
</svg>
