<?xml version="1.0" encoding="UTF-8"?>
<svg data-bbox="1 1 370 439" viewBox="0 0 370 439" xmlns="http://www.w3.org/2000/svg" data-type="color">
    <g>
        <path d="M371 172v268H1V1h370zm-128.293 96.226q-28.283 16.388-56.568 32.771c-2.305 1.335-4.267 2.409-7.247.648-22.341-13.197-44.815-26.17-67.266-39.184-4.974-2.883-10.019-5.646-15.627-8.8 0 18.29.105 35.751-.09 53.21-.04 3.447 1.056 5.346 4 7.016 16.348 9.272 32.597 18.719 48.872 28.122 4.299 2.485 10.341 4.072 12.349 7.809 2.02 3.762.056 9.69-.234 14.665-.616 10.59-1.28 21.176-1.959 32.351-9.837 0-19.176-.369-28.475.083a1170 1170 0 0 0-47.297 3.257c-3.984.356-7.816 2.429-11.717 3.713l.32 1.665c1.703.432 3.386.978 5.112 1.278 23.168 4.039 46.517 6.573 70.025 6.635 34.986.092 69.976-.203 104.957-.764 10.115-.162 20.243-1.534 30.29-2.9 3.824-.519 7.438-2.58 11.148-3.939l-.34-2.482c-28.876-4.955-58.08-6.64-87.57-7.082-.765-12.43-1.102-24.578-2.405-36.621-.812-7.494 1.205-11.617 8.176-15.526 40.62-22.772 80.837-46.261 121.278-69.355 3.601-2.056 4.614-4.51 4.583-8.437-.384-48.658-.62-97.316-.907-145.975-.008-1.44-.137-2.879-.256-5.223-4.657 2.76-8.708 5.217-12.811 7.583a279076 279076 0 0 1-103.341 59.547c-10.514 6.056-20.784 12.615-31.665 17.923-5.3 2.585-7.024 5.523-6.847 11.05.491 15.32.578 30.652.82 45.98.02 1.239.003 2.479.003 4.65 35.062-20.22 69.222-39.918 104.053-60.003 0 13.056-.139 25.051.09 37.04.064 3.308-1.02 5.08-3.833 6.661-13.048 7.33-25.981 14.863-39.621 22.634m27.535-156.474 47.963-27.795c-15.627-9.069-30.607-17.58-45.363-26.46-3.511-2.115-5.987-1.96-9.405.047-26.521 15.57-53.128 30.997-79.768 46.364-50.975 29.402-101.996 58.724-152.948 88.165-1.196.69-2.564 2.377-2.583 3.618-.37 24.325-.625 48.653-.628 72.98 0 1.878 1.584 4.535 3.219 5.509 10.984 6.545 22.174 12.745 33.313 19.03 4.408 2.486 8.856 4.903 13.991 7.74v-6.344c-.018-22.497-.11-44.994.067-67.489.016-2.07 1.184-4.993 2.785-6.036 6.67-4.35 13.707-8.137 20.615-12.12a226451 226451 0 0 1 168.742-97.209m-145.95-14.974 107.933-62.473c-16.535-9.585-32.456-18.862-48.469-27.978-.95-.54-2.841-.172-3.942.425-5.844 3.17-11.584 6.534-17.344 9.858-20.174 11.644-40.343 23.298-60.513 34.951C77.324 65.794 52.693 80.03 28.355 94.094v78.863c16.044-9.22 31.65-18.076 47.08-27.23 1.537-.912 2.703-3.593 2.817-5.525.263-4.464-.563-8.995-.251-13.45.135-1.936 1.518-4.552 3.131-5.495 14.07-8.22 28.319-16.13 43.16-24.479" fill="#FEFEFE" data-color="1"/>
        <path d="M243.04 268.07c13.307-7.615 26.24-15.148 39.288-22.478 2.813-1.58 3.897-3.353 3.834-6.661-.23-11.989-.09-23.984-.09-37.04l-104.054 60.003c0-2.171.017-3.411-.003-4.65-.242-15.328-.329-30.66-.82-45.98-.177-5.527 1.547-8.465 6.847-11.05 10.88-5.308 21.15-11.867 31.665-17.923 34.45-19.844 68.9-39.688 103.34-59.547 4.104-2.366 8.155-4.823 12.812-7.583.119 2.344.248 3.783.256 5.223.286 48.659.523 97.317.907 145.975.031 3.927-.982 6.381-4.583 8.437-40.44 23.094-80.658 46.583-121.278 69.355-6.971 3.909-8.988 8.032-8.176 15.526 1.303 12.043 1.64 24.19 2.406 36.62 29.489.444 58.693 2.128 87.57 7.083l.339 2.482c-3.71 1.359-7.324 3.42-11.148 3.94-10.047 1.365-20.175 2.737-30.29 2.9-34.981.56-69.971.855-104.957.763-23.508-.062-46.857-2.596-70.025-6.635-1.726-.3-3.41-.846-5.112-1.278l-.32-1.665c3.901-1.284 7.733-3.357 11.717-3.713a1170 1170 0 0 1 47.297-3.257c9.299-.452 18.638-.083 28.475-.083.68-11.175 1.343-21.762 1.96-32.351.29-4.975 2.254-10.903.233-14.665-2.008-3.737-8.05-5.324-12.35-7.809-16.274-9.403-32.523-18.85-48.872-28.122-2.943-1.67-4.038-3.569-4-7.017.196-17.458.09-34.92.09-53.209 5.61 3.154 10.654 5.917 15.628 8.8 22.45 13.013 44.925 25.987 67.266 39.184 2.98 1.76 4.942.687 7.247-.648 18.857-10.922 37.712-21.847 56.9-32.926" fill="#605146" data-color="2"/>
        <path d="M269.912 111.911a434930 434930 0 0 0-168.412 97.05c-6.908 3.983-13.945 7.77-20.615 12.12-1.6 1.043-2.769 3.967-2.785 6.036-.177 22.495-.085 44.992-.067 67.489v6.345c-5.135-2.838-9.583-5.255-13.991-7.742-11.14-6.284-22.329-12.484-33.313-19.029-1.635-.974-3.219-3.631-3.219-5.51.003-24.326.258-48.654.628-72.98.019-1.24 1.387-2.926 2.583-3.617 50.952-29.44 101.973-58.763 152.948-88.165 26.64-15.367 53.247-30.793 79.768-46.364 3.418-2.006 5.894-2.162 9.405-.048 14.756 8.882 29.736 17.392 45.363 26.461a36951 36951 0 0 1-48.293 27.954" fill="#0A5634" data-color="3"/>
        <path d="M123.97 96.952c-14.519 8.176-28.769 16.086-42.838 24.305-1.613.943-2.996 3.56-3.131 5.494-.312 4.456.514 8.987.25 13.451-.113 1.932-1.28 4.613-2.816 5.525-15.43 9.154-31.036 18.01-47.08 27.23V94.094c24.338-14.064 48.97-28.3 73.602-42.533 20.17-11.653 40.339-23.307 60.513-34.95 5.76-3.325 11.5-6.688 17.344-9.859 1.1-.597 2.993-.966 3.942-.425 16.013 9.116 31.934 18.393 48.469 27.978C195.849 55.36 160.07 76.07 123.969 96.952" fill="#0C5634" data-color="4"/>
    </g>
</svg>
