<?xml version="1.0" encoding="UTF-8"?>
<svg version="1.1" xmlns="http://www.w3.org/2000/svg" width="3099" height="2100">
<path d="M0 0 C0.41140099 59.67358227 0.79298131 119.34732548 1.01623535 179.02194214 C1.01954872 179.90532452 1.02286209 180.78870689 1.02627587 181.69885843 C1.09810783 200.8977385 1.16459188 220.0966336 1.22556791 239.29555113 C1.25550365 248.71087205 1.28662098 258.1261889 1.31835938 267.54150391 C1.32149759 268.47843449 1.32463581 269.41536508 1.32786912 270.3806875 C1.43011886 300.74254113 1.61037069 331.1033219 1.8311333 361.46452571 C2.05760853 392.66809939 2.20527125 423.87107951 2.25395976 455.07546118 C2.26087534 459.48411507 2.26869062 463.89276694 2.27705383 468.3014183 C2.27948106 469.60293017 2.27948106 469.60293017 2.28195732 470.93073521 C2.31030545 484.89120646 2.42157614 498.84984087 2.56396881 512.80956337 C2.70539709 526.84862245 2.75920135 540.88586332 2.72403306 554.9256096 C2.70579235 563.26586825 2.75425262 571.59946701 2.89914103 579.93852057 C3.00003233 586.17200494 2.97495383 592.39910162 2.90157348 598.63283704 C2.89144169 601.15007458 2.92183348 603.66787585 2.99719638 606.18400539 C3.43099504 621.56377889 3.43099504 621.56377889 0 628 C-5.96572497 633.95139414 -13.53837417 637.41952614 -21.1798684 640.74492382 C-24.84035543 642.37399321 -28.19132282 644.31477334 -31.625 646.375 C-33.74950978 647.58419505 -35.87450004 648.79254633 -38 650 C-47.72293922 655.53684936 -57.40898902 661.13377292 -67.06689453 666.78344727 C-77.59084625 672.93766742 -88.15380137 679.02369996 -98.71777344 685.10888672 C-104.14659942 688.23680148 -109.57319281 691.36858448 -115 694.5 C-117.16665583 695.75001879 -119.3333225 697.00001878 -121.5 698.25 C-123.10875 699.178125 -123.10875 699.178125 -124.75 700.125 C-316.5 810.75 -316.5 810.75 -319.75048828 812.62524414 C-321.91557071 813.87435518 -324.08060982 815.12354129 -326.24560547 816.37280273 C-331.68615706 819.51202309 -337.12747216 822.64990563 -342.5703125 825.78515625 C-353.02206199 831.80747329 -363.46299548 837.84669337 -373.875 843.9375 C-383.14499777 849.35921178 -392.45831752 854.70204915 -401.78845215 860.01922607 C-410.9128284 865.22045129 -420.00132774 870.48027878 -429.06689453 875.78344727 C-439.59084625 881.93766742 -450.15380137 888.02369996 -460.71777344 894.10888672 C-467.2235961 897.8573323 -473.72644083 901.61094181 -480.22973633 905.36376953 C-486.88865802 909.20605429 -493.54833478 913.04700421 -500.21337891 916.87866211 C-502.42212036 918.15402594 -504.62635377 919.43723352 -506.82568359 920.72875977 C-511.61823693 923.53616414 -516.38153481 926.23834431 -521.41015625 928.6015625 C-522.21573975 929.00270264 -523.02132324 929.40384277 -523.85131836 929.81713867 C-526.125 930.9375 -526.125 930.9375 -528.27954102 931.80200195 C-530.6170798 932.99207044 -531.56265527 933.78307738 -533 936 C-533.37448991 939.36062558 -533.37448991 939.36062558 -533.22692871 943.1962738 C-533.21557624 943.90594596 -533.20422378 944.61561812 -533.19252729 945.3467955 C-533.0432571 952.93379639 -532.63070934 960.50867814 -532.17382812 968.08227539 C-532.0847508 969.61690444 -531.99609506 971.15155802 -531.90782166 972.68623352 C-531.71892637 975.95570166 -531.52722245 979.22498778 -531.33323669 982.49415779 C-531.02572049 987.67863025 -530.72533502 992.86350187 -530.42590332 998.04844666 C-529.78937361 1009.0534504 -529.14497383 1020.05798845 -528.5 1031.0625 C-527.8033061 1042.9521787 -527.10820842 1054.8419426 -526.4212966 1066.73219103 C-526.12414131 1071.87144312 -525.82281089 1077.01042713 -525.51810455 1082.1492368 C-525.32854285 1085.36088516 -525.14262114 1088.57273723 -524.95761299 1091.7846508 C-524.87206511 1093.2571685 -524.78506316 1094.72960269 -524.69637871 1096.20193481 C-524.11835607 1105.81485062 -523.8972021 1115.3718003 -524 1125 C-523.0099465 1124.98879246 -522.019893 1124.97758492 -520.99983788 1124.96603775 C-433.85270569 1124.00055917 -345.64486283 1128.69847099 -190.1875 1148.5625 C-189.45837402 1148.748125 -188.72924805 1148.93375 -187.97802734 1149.125 C-182.99896328 1150.49397708 -176.7342174 1152.2657826 -173 1156 C-172.5625 1158.8125 -172.5625 1158.8125 -173 1162 C-214.29653692 1194.39428944 -376.15551597 1189.52990717 -436.875 1191.6875 C-437.73489281 1191.71824867 -438.59478561 1191.74899734 -439.48073578 1191.7806778 C-451.44320636 1192.20758113 -463.40651828 1192.59005351 -475.37189484 1192.92595291 C-477.10901219 1192.97489634 -478.84610904 1193.02457363 -480.58318329 1193.07502365 C-522.08506909 1194.27853602 -563.59905694 1194.18782402 -605.11439073 1194.18511146 C-611.86973503 1194.18541212 -618.62503871 1194.19352069 -625.38037109 1194.20581055 C-666.89989522 1194.27957242 -708.39391867 1194.10787517 -749.90234375 1193.07421875 C-750.74800069 1193.05327329 -751.59365764 1193.03232784 -752.46494055 1193.01074767 C-834.13937283 1190.97490059 -916.54252463 1188.29348674 -1058 1162 C-1058.875 1159.25 -1058.875 1159.25 -1059 1157 C-1018.40323169 1122.02318505 -830.1390385 1127.46778495 -708 1125 C-707.96068863 1124.13536636 -707.92137726 1123.27073273 -707.88087463 1122.37989807 C-706.29681579 1087.9542583 -704.31970981 1053.55092106 -702.34943163 1019.14574683 C-701.97898249 1012.67256399 -701.61186394 1006.19919517 -701.24542516 999.72578424 C-700.88723694 993.40035703 -700.52695411 987.07505143 -700.16501147 980.74983793 C-699.95084382 977.00665782 -699.7374605 973.26343746 -699.52616692 969.52009392 C-699.29254749 965.38292792 -699.05455957 961.24602428 -698.81616211 957.10913086 C-698.74809357 955.89320251 -698.68002502 954.67727417 -698.6098938 953.42449951 C-698.26927028 947.576082 -697.8189558 941.80154692 -697 936 C-698.09284302 935.58379395 -698.09284302 935.58379395 -699.20776367 935.15917969 C-701.82694348 934.07184335 -704.21122742 932.85102985 -706.67578125 931.453125 C-707.57337158 930.94539551 -708.47096191 930.43766602 -709.39575195 929.91455078 C-710.35827881 929.36524902 -711.32080566 928.81594727 -712.3125 928.25 C-713.32723389 927.67362793 -714.34196777 927.09725586 -715.38745117 926.50341797 C-724.5780878 921.26959599 -733.71188214 915.93975958 -742.83984375 910.59765625 C-752.43942238 904.98321325 -762.08135951 899.4419968 -771.71777344 893.89111328 C-777.14659942 890.76319852 -782.57319281 887.63141552 -788 884.5 C-790.16665583 883.24998121 -792.3333225 881.99998122 -794.5 880.75 C-833.5 858.25 -872.5 835.75 -911.5 813.25 C-912.57435303 812.63020264 -913.64870605 812.01040527 -914.75561523 811.37182617 C-916.90364046 810.13253733 -919.05159075 808.89311859 -921.19946289 807.65356445 C-926.28655549 804.71797433 -931.37441847 801.78374328 -936.4649353 798.85409546 C-938.87543748 797.46671905 -941.28551376 796.07860376 -943.69555664 794.69042969 C-945.40143968 793.70826185 -947.10793986 792.72716615 -948.81445312 791.74609375 C-949.84376953 791.153125 -950.87308594 790.56015625 -951.93359375 789.94921875 C-952.84165771 789.42674561 -953.74972168 788.90427246 -954.68530273 788.3659668 C-956.49126201 787.30022034 -958.25521129 786.16319248 -960 785 C-960.29406176 781.9301145 -960.39082768 779.06206928 -960.36076355 775.98983765 C-960.36332682 775.0448282 -960.3658901 774.09981876 -960.36853105 773.12617266 C-960.37349692 769.93990195 -960.35692983 766.7540986 -960.34057617 763.56787109 C-960.33973051 761.29174307 -960.34020386 759.01561424 -960.34190369 756.73948669 C-960.34276742 750.54345067 -960.32508049 744.34758749 -960.30418181 738.15159178 C-960.28547794 731.68266384 -960.28366955 725.2137323 -960.28010559 718.74478149 C-960.27182887 707.88157793 -960.25306701 697.01844555 -960.22631836 686.15527344 C-960.1987925 674.964847 -960.17755173 663.77443782 -960.16479492 652.58398438 C-960.16400675 651.89451384 -960.16321858 651.20504331 -960.16240653 650.49467973 C-960.15849149 647.03590065 -960.15470035 643.57712145 -960.15097082 640.11834216 C-960.11985717 611.41218507 -960.06678332 582.70609502 -960 554 C-958.39324769 554.79926354 -956.78696307 555.59946733 -955.18087769 556.40007019 C-954.28632811 556.84558322 -953.39177853 557.29109625 -952.47012138 557.75010967 C-949.844236 559.07881715 -947.29047745 560.48969566 -944.7578125 561.98828125 C-943.85160156 562.52130859 -942.94539063 563.05433594 -942.01171875 563.60351562 C-941.05910156 564.16748047 -940.10648438 564.73144531 -939.125 565.3125 C-930.11940883 570.60625089 -921.07765603 575.83125681 -912 581 C-902.27828146 586.53901815 -892.59104014 592.13375586 -882.93310547 597.78344727 C-872.40915375 603.93766742 -861.84619863 610.02369996 -851.28222656 616.10888672 C-845.85340058 619.23680148 -840.42680719 622.36858448 -835 625.5 C-832.83334417 626.75001879 -830.6666775 628.00001878 -828.5 629.25 C-780.83333333 656.75 -733.16666667 684.25 -685.5 711.75 C-683.8907666 712.6783667 -683.8907666 712.6783667 -682.24902344 713.62548828 C-680.08552524 714.87371034 -677.92211357 716.12208239 -675.75878906 717.37060547 C-670.29434983 720.52405256 -664.82836355 723.67476096 -659.359375 726.8203125 C-658.26455811 727.45066406 -657.16974121 728.08101562 -656.04174805 728.73046875 C-653.86706042 729.98208753 -651.69145781 731.232118 -649.51489258 732.48046875 C-644.18627429 735.54561396 -638.89450653 738.65610902 -633.65234375 741.8671875 C-632.64655273 742.47868652 -631.64076172 743.09018555 -630.60449219 743.72021484 C-628.70811583 744.87727742 -626.81895231 746.04627484 -624.93847656 747.22900391 C-624.09639648 747.74124512 -623.25431641 748.25348633 -622.38671875 748.78125 C-621.65670654 749.23564453 -620.92669434 749.69003906 -620.17456055 750.15820312 C-617.31965011 751.2633711 -615.90049615 750.91777641 -613 750 C-610.46099872 748.83322107 -610.46099872 748.83322107 -607.88671875 747.33203125 C-606.89873291 746.77588135 -605.91074707 746.21973145 -604.89282227 745.64672852 C-603.83506592 745.04143311 -602.77730957 744.4361377 -601.6875 743.8125 C-600.57882568 743.184646 -599.47015137 742.55679199 -598.32788086 741.90991211 C-588.87034342 736.53806301 -579.47298349 731.06304021 -570.08984375 725.5625 C-563.78429581 721.8678669 -557.45705564 718.21147319 -551.125 714.5625 C-550.04484619 713.93996338 -548.96469238 713.31742676 -547.85180664 712.67602539 C-545.66203666 711.41423174 -543.47217645 710.15259466 -541.28222656 708.89111328 C-535.85340058 705.76319852 -530.42680719 702.63141552 -525 699.5 C-522.83334417 698.24998121 -520.6666775 696.99998122 -518.5 695.75 C-516.89125 694.821875 -516.89125 694.821875 -515.25 693.875 C-349.49999999 598.25 -349.49999999 598.25 -346.24951172 596.37475586 C-344.08442929 595.12564482 -341.91939018 593.87645871 -339.75439453 592.62719727 C-334.31384294 589.48797691 -328.87252784 586.35009437 -323.4296875 583.21484375 C-312.97793801 577.19252671 -302.53700452 571.15330663 -292.125 565.0625 C-282.85500223 559.64078822 -273.54168248 554.29795085 -264.21154785 548.98077393 C-256.07429582 544.3422453 -247.96052611 539.66580716 -239.875 534.9375 C-237.94272261 533.80856931 -236.01043086 532.67966321 -234.078125 531.55078125 C-232.61729492 530.69734131 -232.61729492 530.69734131 -231.12695312 529.82666016 C-230.09505859 529.2238623 -229.06316406 528.62106445 -228 528 C-227.42822021 527.66579041 -226.85644043 527.33158081 -226.26733398 526.98724365 C-222.64324467 524.86942414 -219.01647282 522.7563173 -215.3862915 520.6489563 C-213.65533028 519.64263302 -211.92700477 518.63178048 -210.19873047 517.62084961 C-209.15604004 517.01635986 -208.11334961 516.41187012 -207.0390625 515.7890625 C-206.11303223 515.24975098 -205.18700195 514.71043945 -204.23291016 514.15478516 C-202 513 -202 513 -200 513 C-200.33 458.22 -200.66 403.44 -201 347 C-216.33168488 355.76096279 -231.63739006 364.52187716 -246.875 373.4375 C-253.55810286 377.33597667 -260.27778091 381.16958401 -267 385 C-276.72124506 390.53985933 -286.40894868 396.13374932 -296.06689453 401.78344727 C-306.59084625 407.93766742 -317.15380137 414.02369996 -327.71777344 420.10888672 C-333.14659942 423.23680148 -338.57319281 426.36858448 -344 429.5 C-346.16665583 430.75001879 -348.3333225 432.00001878 -350.5 433.25 C-351.5725 433.86875 -352.645 434.4875 -353.75 435.125 C-519.49999999 530.75 -519.49999999 530.75 -522.75048828 532.62524414 C-524.91557071 533.87435518 -527.08060982 535.12354129 -529.24560547 536.37280273 C-534.68615706 539.51202309 -540.12747216 542.64990563 -545.5703125 545.78515625 C-556.06232279 551.83055266 -566.5446683 557.89135408 -577 564 C-585.21553887 568.79785265 -593.43596299 573.58714005 -601.6706543 578.35205078 C-603.41083012 579.35955896 -605.14976115 580.36921615 -606.88867188 581.37890625 C-607.93474609 581.98347656 -608.98082031 582.58804688 -610.05859375 583.2109375 C-610.98986084 583.75024902 -611.92112793 584.28956055 -612.88061523 584.84521484 C-615 586 -615 586 -616 586 C-616.5483474 556.81151543 -616.9726549 527.62339774 -617.22556791 498.43081018 C-617.2555823 494.97893009 -617.28664628 491.52706019 -617.31835938 488.07519531 C-617.32465483 487.38803565 -617.33095028 486.70087598 -617.3374365 485.99289329 C-617.44167352 474.8880318 -617.63077633 463.78617366 -617.85166711 452.6830899 C-618.07668841 441.27662896 -618.20772919 429.87259601 -618.25812387 418.46385157 C-618.28935634 412.05973549 -618.36241255 405.66241103 -618.53752136 399.26047897 C-619.59572108 359.05992989 -619.59572108 359.05992989 -613.64449692 351.51764488 C-608.0887858 346.36945851 -602.03376385 343.7673194 -594.78815842 341.80975533 C-591.01454834 340.71379864 -588.17512062 338.99986206 -584.8828125 336.87890625 C-582.96389348 335.77282692 -581.04463128 334.66734273 -579.125 333.5625 C-576.94009462 332.30340198 -574.75519908 331.04428689 -572.5703125 329.78515625 C-571.48524414 329.16012207 -570.40017578 328.53508789 -569.28222656 327.89111328 C-563.85340058 324.76319852 -558.42680719 321.63141552 -553 318.5 C-550.83334417 317.24998121 -548.6666775 315.99998122 -546.5 314.75 C-545.4275 314.13125 -544.355 313.5125 -543.25 312.875 C-481.49999999 277.25 -481.49999999 277.25 -478.24951172 275.37475586 C-476.08442929 274.12564482 -473.91939018 272.87645871 -471.75439453 271.62719727 C-466.31384294 268.48797691 -460.87252784 265.35009437 -455.4296875 262.21484375 C-444.97793801 256.19252671 -434.53700452 250.15330663 -424.125 244.0625 C-414.85500223 238.64078822 -405.54168248 233.29795085 -396.21154785 227.98077393 C-387.0871716 222.77954871 -377.99867226 217.51972122 -368.93310547 212.21655273 C-358.40915375 206.06233258 -347.84619863 199.97630004 -337.28222656 193.89111328 C-331.85340058 190.76319852 -326.42680719 187.63141552 -321 184.5 C-318.83334417 183.24998121 -316.6666775 181.99998122 -314.5 180.75 C-313.4275 180.13125 -312.355 179.5125 -311.25 178.875 C-145.5 83.25 -145.5 83.25 -142.24951172 81.37475586 C-140.08442929 80.12564482 -137.91939018 78.87645871 -135.75439453 77.62719727 C-130.31384294 74.48797691 -124.87252784 71.35009437 -119.4296875 68.21484375 C-108.97793801 62.19252671 -98.53700452 56.15330663 -88.125 50.0625 C-79.44737338 44.98724631 -70.73378487 39.97769668 -62 35 C-53.18601886 29.97558457 -44.38809579 24.92538032 -35.625 19.8125 C-34.66126465 19.25030762 -33.6975293 18.68811523 -32.70458984 18.10888672 C-27.68540703 15.17432145 -22.6800343 12.21796959 -17.6875 9.23828125 C-16.66962402 8.63201904 -15.65174805 8.02575684 -14.60302734 7.40112305 C-12.65824513 6.24123695 -10.71575127 5.07750293 -8.77587891 3.90942383 C-7.91397949 3.39532959 -7.05208008 2.88123535 -6.1640625 2.3515625 C-5.02638428 1.66827881 -5.02638428 1.66827881 -3.86572266 0.97119141 C-2 0 -2 0 0 0 Z " fill="#5F5045" transform="translate(2156,461)"/>
<path d="M0 0 C3.83906774 1.15554029 7.01314277 2.96952761 10.390625 5.0703125 C11.90665657 5.98715948 13.42364758 6.90242118 14.94140625 7.81640625 C15.76979004 8.31769043 16.59817383 8.81897461 17.45166016 9.33544922 C22.45660763 12.3318741 27.52088328 15.22584062 32.578125 18.1328125 C34.82689342 19.42826303 37.07559041 20.72383758 39.32421875 22.01953125 C41.01780518 22.9947876 41.01780518 22.9947876 42.74560547 23.98974609 C48.2123248 27.13863304 53.67637387 30.29214514 59.140625 33.4453125 C61.30727811 34.695336 63.47394479 35.94533597 65.640625 37.1953125 C78.640625 44.6953125 91.640625 52.1953125 104.640625 59.6953125 C106.2496167 60.62355835 106.2496167 60.62355835 107.89111328 61.57055664 C110.05619571 62.81966768 112.22123482 64.06885379 114.38623047 65.31811523 C119.82678206 68.45733559 125.26809716 71.59521813 130.7109375 74.73046875 C142.22193339 81.36286446 153.72535599 88.00756984 165.18994141 94.7199707 C170.43834757 97.79241131 175.69821889 100.84250652 180.9765625 103.86328125 C182.09144043 104.50450928 183.20631836 105.1457373 184.35498047 105.80639648 C186.50941898 107.04498251 188.66719733 108.27778106 190.82861328 109.50415039 C191.78751465 110.05707764 192.74641602 110.61000488 193.734375 111.1796875 C194.58708984 111.66663086 195.43980469 112.15357422 196.31835938 112.65527344 C196.91970703 113.08098633 197.52105469 113.50669922 198.140625 113.9453125 C198.140625 114.6053125 198.140625 115.2653125 198.140625 115.9453125 C197.47232666 116.3170459 196.80402832 116.6887793 196.11547852 117.07177734 C179.33373966 126.4111474 179.33373966 126.4111474 162.7265625 136.05541992 C156.41391023 139.79755659 150.06158734 143.46912928 143.703125 147.1328125 C142.59590088 147.77081787 141.48867676 148.40882324 140.34790039 149.06616211 C138.07725432 150.37420727 135.80650142 151.68206698 133.53564453 152.98974609 C128.0689252 156.13863304 122.60487613 159.29214514 117.140625 162.4453125 C114.97397189 163.695336 112.80730521 164.94533597 110.640625 166.1953125 C109.568125 166.8140625 108.495625 167.4328125 107.390625 168.0703125 C71.64062498 188.69531251 71.64062498 188.69531251 68.39013672 190.57055664 C66.22505429 191.81966768 64.06001518 193.06885379 61.89501953 194.31811523 C56.45446794 197.45733559 51.01315284 200.59521813 45.5703125 203.73046875 C35.11856301 209.75278579 24.67762952 215.79200587 14.265625 221.8828125 C4.99562723 227.30452428 -4.31769252 232.64736165 -13.64782715 237.96453857 C-22.7722034 243.16576379 -31.86070274 248.42559128 -40.92626953 253.72875977 C-51.45022125 259.88297992 -62.01317637 265.96901246 -72.57714844 272.05419922 C-78.00597442 275.18211398 -83.43256781 278.31389698 -88.859375 281.4453125 C-91.02603083 282.69533129 -93.1926975 283.94533128 -95.359375 285.1953125 C-96.431875 285.8140625 -97.504375 286.4328125 -98.609375 287.0703125 C-290.359375 397.6953125 -290.359375 397.6953125 -293.60986328 399.57055664 C-295.77494571 400.81966768 -297.93998482 402.06885379 -300.10498047 403.31811523 C-305.54553206 406.45733559 -310.98684716 409.59521813 -316.4296875 412.73046875 C-326.88143699 418.75278579 -337.32237048 424.79200587 -347.734375 430.8828125 C-357.00437277 436.30452428 -366.31769252 441.64736165 -375.64782715 446.96453857 C-384.7722034 452.16576379 -393.86070274 457.42559128 -402.92626953 462.72875977 C-413.45022125 468.88297992 -424.01317637 474.96901246 -434.57714844 481.05419922 C-440.00597442 484.18211398 -445.43256781 487.31389698 -450.859375 490.4453125 C-453.02603083 491.69533129 -455.1926975 492.94533128 -457.359375 494.1953125 C-458.431875 494.8140625 -459.504375 495.4328125 -460.609375 496.0703125 C-678.359375 621.6953125 -678.359375 621.6953125 -681.60986328 623.57055664 C-683.77494571 624.81966768 -685.93998482 626.06885379 -688.10498047 627.31811523 C-693.54553206 630.45733559 -698.98684716 633.59521813 -704.4296875 636.73046875 C-724.73639087 648.35982267 -724.73639087 648.35982267 -744.88707185 660.25501198 C-747.859375 661.9453125 -747.859375 661.9453125 -750.97018027 663.34354883 C-757.1941462 666.22258791 -757.1941462 666.22258791 -760.96543932 671.64004886 C-761.39444938 675.03415276 -761.42911934 678.24940801 -761.34039307 681.66978455 C-761.35472972 682.95391741 -761.36906637 684.23805027 -761.38383746 685.56109625 C-761.42191891 689.11543284 -761.38551845 692.66566678 -761.33670545 696.21972764 C-761.29715239 700.05549372 -761.32699786 703.89080048 -761.3483429 707.72662354 C-761.37583964 714.36879478 -761.35953328 721.00969501 -761.3133316 727.65174675 C-761.24659737 737.25473838 -761.24614575 746.85683717 -761.26178297 756.46000618 C-761.28535761 772.04071302 -761.25545454 787.62083892 -761.19189453 803.20141602 C-761.13027286 818.33493109 -761.09385364 833.46816132 -761.09130859 848.60180664 C-761.09114291 849.53489719 -761.09097722 850.46798774 -761.09080651 851.42935377 C-761.09013071 856.11047366 -761.08995018 860.79159342 -761.09001589 865.47271335 C-761.08992025 904.2971941 -761.00302481 943.12111299 -760.859375 981.9453125 C-765.56500477 981.14510005 -769.01979315 979.29377963 -773.046875 976.8203125 C-774.57211602 975.90361445 -776.09821449 974.9883421 -777.625 974.07421875 C-778.45966797 973.57293457 -779.29433594 973.07165039 -780.15429688 972.55517578 C-785.17098526 969.56961231 -790.23651946 966.66852629 -795.296875 963.7578125 C-797.54560259 962.46229109 -799.79430011 961.16671748 -802.04296875 959.87109375 C-803.73655518 958.8958374 -803.73655518 958.8958374 -805.46435547 957.90087891 C-810.9310748 954.75199196 -816.39512387 951.59847986 -821.859375 948.4453125 C-824.02602811 947.195289 -826.19269479 945.94528903 -828.359375 944.6953125 C-832.69270833 942.1953125 -837.02604167 939.6953125 -841.359375 937.1953125 C-842.43203613 936.57648193 -843.50469727 935.95765137 -844.60986328 935.32006836 C-846.77494571 934.07095732 -848.93998482 932.82177121 -851.10498047 931.57250977 C-856.54553206 928.43328941 -861.98684716 925.29540687 -867.4296875 922.16015625 C-878.86574305 915.57068028 -890.28330193 908.95163413 -901.67578125 902.28710938 C-907.0400119 899.15504548 -912.4166801 896.04607304 -917.8125 892.96875 C-918.40906403 892.62849289 -919.00562805 892.28823578 -919.62026978 891.93766785 C-922.47539747 890.31022051 -925.33209673 888.68565369 -928.19091797 887.06469727 C-930.35860289 885.83183259 -932.50865392 884.56745972 -934.64018822 883.27309704 C-937.77175385 881.4467656 -940.94038455 880.08472358 -944.30962563 878.75231647 C-958.93615732 872.43047128 -958.93615732 872.43047128 -962.1194644 865.00664306 C-963.99206854 856.71831186 -963.6757909 848.24531996 -963.41281867 839.80541766 C-963.31712869 835.94948445 -963.35000741 832.09427551 -963.3666687 828.23748779 C-963.37816478 821.56770752 -963.30960248 814.90268812 -963.18543625 808.23410606 C-963.00605022 798.59352527 -962.9492894 788.95522869 -962.92170043 779.31316004 C-962.87363843 763.66816368 -962.72748201 748.02570157 -962.51904297 732.38208008 C-962.31686849 717.1927553 -962.16126345 702.00412067 -962.06787109 686.8137207 C-962.06209118 685.8762325 -962.05631126 684.9387443 -962.05035619 683.97284736 C-962.02164379 679.26938749 -961.9938426 674.56592276 -961.96649432 669.86245477 C-961.73870204 630.88830022 -961.35146421 591.91697413 -960.859375 552.9453125 C-959.81716042 552.36365578 -959.81716042 552.36365578 -958.75389099 551.77024841 C-955.53715499 549.97419815 -952.32130935 548.17655921 -949.10546875 546.37890625 C-948.01310913 545.76930054 -946.92074951 545.15969482 -945.79528809 544.53161621 C-938.46079251 540.42977685 -931.17405464 536.25342029 -923.921875 532.0078125 C-922.81577881 531.36070312 -921.70968262 530.71359375 -920.57006836 530.046875 C-919.70518799 529.53898438 -918.84030762 529.03109375 -917.94921875 528.5078125 C-911.64367081 524.8131794 -905.31643064 521.15678569 -898.984375 517.5078125 C-897.90422119 516.88527588 -896.82406738 516.26273926 -895.71118164 515.62133789 C-893.52141166 514.35954424 -891.33155145 513.09790716 -889.14160156 511.83642578 C-883.71277558 508.70851102 -878.28618219 505.57672802 -872.859375 502.4453125 C-870.69271917 501.19529371 -868.5260525 499.94529372 -866.359375 498.6953125 C-865.286875 498.0765625 -864.214375 497.4578125 -863.109375 496.8203125 C-853.359375 491.1953125 -853.359375 491.1953125 -850.10888672 489.32006836 C-847.94380429 488.07095732 -845.77876518 486.82177121 -843.61376953 485.57250977 C-838.17321794 482.43328941 -832.73190284 479.29540687 -827.2890625 476.16015625 C-816.83731301 470.13783921 -806.39637952 464.09861913 -795.984375 458.0078125 C-786.71437723 452.58610072 -777.40105748 447.24326335 -768.07092285 441.92608643 C-758.9465466 436.72486121 -749.85804726 431.46503372 -740.79248047 426.16186523 C-730.26852875 420.00764508 -719.70557363 413.92161254 -709.14160156 407.83642578 C-703.71277558 404.70851102 -698.28618219 401.57672802 -692.859375 398.4453125 C-690.69271917 397.19529371 -688.5260525 395.94529372 -686.359375 394.6953125 C-685.286875 394.0765625 -684.214375 393.4578125 -683.109375 392.8203125 C-491.359375 282.1953125 -491.359375 282.1953125 -488.10888672 280.32006836 C-485.94380429 279.07095732 -483.77876518 277.82177121 -481.61376953 276.57250977 C-476.17321794 273.43328941 -470.73190284 270.29540687 -465.2890625 267.16015625 C-454.83731301 261.13783921 -444.39637952 255.09861913 -433.984375 249.0078125 C-424.71437723 243.58610072 -415.40105748 238.24326335 -406.07092285 232.92608643 C-396.9465466 227.72486121 -387.85804726 222.46503372 -378.79248047 217.16186523 C-368.26852875 211.00764508 -357.70557363 204.92161254 -347.14160156 198.83642578 C-341.71277558 195.70851102 -336.28618219 192.57672802 -330.859375 189.4453125 C-328.69271917 188.19529371 -326.5260525 186.94529372 -324.359375 185.6953125 C-323.286875 185.0765625 -322.214375 184.4578125 -321.109375 183.8203125 C-129.359375 73.1953125 -129.359375 73.1953125 -126.10888672 71.32006836 C-123.94380429 70.07095732 -121.77876518 68.82177121 -119.61376953 67.57250977 C-114.17321794 64.43328941 -108.73190284 61.29540687 -103.2890625 58.16015625 C-92.83731301 52.13783921 -82.39637952 46.09861913 -71.984375 40.0078125 C-62.72138806 34.59020113 -53.41522471 29.25119829 -44.09207153 23.93817139 C-24.46529624 12.93437529 -24.46529624 12.93437529 -5.2409668 1.26733398 C-2.859375 -0.0546875 -2.859375 -0.0546875 0 0 Z " fill="#095533" transform="translate(1884.859375,221.0546875)"/>
<path d="M0 0 C4.71807243 2.48749858 9.32596416 5.11890858 13.90625 7.8515625 C16.06992549 9.12826028 18.23400166 10.40427921 20.3984375 11.6796875 C21.51444336 12.33904297 22.63044922 12.99839844 23.78027344 13.67773438 C29.1775133 16.85331606 34.60389 19.9778281 40.03125 23.1015625 C42.21616376 24.36064598 44.40105949 25.61976073 46.5859375 26.87890625 C48.21354004 27.81645752 48.21354004 27.81645752 49.87402344 28.77294922 C55.30284942 31.90086398 60.72944281 35.03264698 66.15625 38.1640625 C68.32290583 39.41408129 70.4895725 40.66408128 72.65625 41.9140625 C76.98958333 44.4140625 81.32291667 46.9140625 85.65625 49.4140625 C87.2652417 50.34230835 87.2652417 50.34230835 88.90673828 51.28930664 C91.07182071 52.53841768 93.23685982 53.78760379 95.40185547 55.03686523 C100.84240706 58.17608559 106.28372216 61.31396813 111.7265625 64.44921875 C122.17831272 70.47153621 132.61918853 76.51085246 143.03125 82.6015625 C155.2252295 89.73202663 167.48942048 96.73670824 179.76269531 103.72949219 C185.56327492 107.03623987 191.35966263 110.35032306 197.15625 113.6640625 C195.89952861 117.43422666 194.86062669 117.67117653 191.43359375 119.52734375 C190.43271729 120.07704834 189.43184082 120.62675293 188.40063477 121.19311523 C186.76372681 122.07592163 186.76372681 122.07592163 185.09375 122.9765625 C182.78803953 124.2429309 180.48337644 125.51120789 178.1796875 126.78125 C177.5908931 127.10477951 177.00209869 127.42830902 176.39546204 127.76164246 C170.61278569 130.94530073 164.91029915 134.25852125 159.21875 137.6015625 C157.22798919 138.76844177 155.23710253 139.93510637 153.24609375 141.1015625 C152.2494873 141.68550781 151.25288086 142.26945313 150.22607422 142.87109375 C144.9229775 145.96843288 139.60230065 149.03520108 134.28125 152.1015625 C132.66101929 153.03536743 132.66101929 153.03536743 131.00805664 153.98803711 C128.81828666 155.24983076 126.62842645 156.51146784 124.43847656 157.77294922 C119.00965058 160.90086398 113.58305719 164.03264698 108.15625 167.1640625 C105.98959417 168.41408129 103.8229275 169.66408128 101.65625 170.9140625 C100.58375 171.5328125 99.51125 172.1515625 98.40625 172.7890625 C88.65625 178.4140625 88.65625 178.4140625 85.40576172 180.28930664 C83.24067929 181.53841768 81.07564018 182.78760379 78.91064453 184.03686523 C73.47009294 187.17608559 68.02877784 190.31396813 62.5859375 193.44921875 C52.13418801 199.47153579 41.69325452 205.51075587 31.28125 211.6015625 C22.01125223 217.02327428 12.69793248 222.36611165 3.36779785 227.68328857 C-5.7565784 232.88451379 -14.84507774 238.14434128 -23.91064453 243.44750977 C-34.43459625 249.60172992 -44.99755137 255.68776246 -55.56152344 261.77294922 C-60.99034942 264.90086398 -66.41694281 268.03264698 -71.84375 271.1640625 C-74.01040583 272.41408129 -76.1770725 273.66408128 -78.34375 274.9140625 C-79.41625 275.5328125 -80.48875 276.1515625 -81.59375 276.7890625 C-273.34375 387.4140625 -273.34375 387.4140625 -276.59423828 389.28930664 C-278.75932071 390.53841768 -280.92435982 391.78760379 -283.08935547 393.03686523 C-288.52990706 396.17608559 -293.97122216 399.31396813 -299.4140625 402.44921875 C-309.86581199 408.47153579 -320.30674548 414.51075587 -330.71875 420.6015625 C-339.39637662 425.67681619 -348.10996513 430.68636582 -356.84375 435.6640625 C-365.65773233 440.68847861 -374.45560618 445.73876137 -383.21875 450.8515625 C-384.49685547 451.59696289 -384.49685547 451.59696289 -385.80078125 452.35742188 C-387.63628442 453.43063212 -389.44557026 454.54940002 -391.23266602 455.70141602 C-394.18085003 457.47184881 -397.16878623 458.44926928 -400.43725586 459.49975586 C-407.12379467 461.98906735 -412.76060607 464.60799016 -416.84375 470.6640625 C-421.06243054 483.57596613 -418.42949107 499.54645484 -417.65625 512.8515625 C-417.28833029 519.57969546 -416.99684576 526.30183615 -416.83530235 533.03820229 C-416.7400029 535.72106358 -416.53875971 538.3813858 -416.32954407 541.05741882 C-415.87446076 550.41490597 -415.87446076 550.41490597 -417.84375 554.6640625 C-421.94271597 559.00156862 -427.34241462 561.40087343 -432.74856567 563.72989273 C-435.74152535 565.06434928 -438.47218971 566.70286958 -441.27734375 568.39453125 C-443.27821621 569.54762081 -445.27952394 570.69995539 -447.28125 571.8515625 C-449.52995951 573.1471153 -451.77865708 574.44268882 -454.02734375 575.73828125 C-455.15640137 576.38845215 -456.28545898 577.03862305 -457.44873047 577.70849609 C-462.9154498 580.85738304 -468.37949887 584.01089514 -473.84375 587.1640625 C-476.01040311 588.414086 -478.17706979 589.66408597 -480.34375 590.9140625 C-481.9525 591.8421875 -481.9525 591.8421875 -483.59375 592.7890625 C-512.84375 609.6640625 -542.09375 626.5390625 -571.34375 643.4140625 C-572.41826416 644.034021 -573.49277832 644.65397949 -574.59985352 645.29272461 C-576.74601227 646.53079993 -578.89233141 647.76859728 -581.03881836 649.00610352 C-586.14899525 651.95271157 -591.25739143 654.90229744 -596.36026001 657.86154175 C-598.78926977 659.26994312 -601.21918188 660.67678343 -603.64916992 662.08349609 C-605.37832851 663.08538456 -607.1061678 664.08954891 -608.83398438 665.09375 C-609.86974609 665.69316406 -610.90550781 666.29257812 -611.97265625 666.91015625 C-612.89119385 667.44310303 -613.80973145 667.9760498 -614.75610352 668.52514648 C-616.84375 669.6640625 -616.84375 669.6640625 -617.84375 669.6640625 C-617.84375 565.7140625 -617.84375 461.7640625 -617.84375 354.6640625 C-608.60375 349.3840625 -599.36375 344.1040625 -589.84375 338.6640625 C-580.83279238 333.4155447 -580.83279238 333.4155447 -571.828125 328.15625 C-562.28552067 322.57977094 -552.70317207 317.07194759 -543.12597656 311.55517578 C-537.69715058 308.42726102 -532.27055719 305.29547802 -526.84375 302.1640625 C-524.67709417 300.91404371 -522.5104275 299.66404372 -520.34375 298.4140625 C-519.27125 297.7953125 -518.19875 297.1765625 -517.09375 296.5390625 C-325.34375 185.9140625 -325.34375 185.9140625 -322.09326172 184.03881836 C-319.92817929 182.78970732 -317.76314018 181.54052121 -315.59814453 180.29125977 C-310.15759294 177.15203941 -304.71627784 174.01415687 -299.2734375 170.87890625 C-288.82168801 164.85658921 -278.38075452 158.81736913 -267.96875 152.7265625 C-258.69875223 147.30485072 -249.38543248 141.96201335 -240.05529785 136.64483643 C-230.9309216 131.44361121 -221.84242226 126.18378372 -212.77685547 120.88061523 C-202.25290375 114.72639508 -191.68994863 108.64036254 -181.12597656 102.55517578 C-175.69715058 99.42726102 -170.27055719 96.29547802 -164.84375 93.1640625 C-162.67709417 91.91404371 -160.5104275 90.66404372 -158.34375 89.4140625 C-157.27125 88.7953125 -156.19875 88.1765625 -155.09375 87.5390625 C-67.34374998 36.91406249 -67.34374998 36.91406249 -64.09204102 35.03808594 C-61.93106012 33.79135994 -59.77009002 32.54461523 -57.60913086 31.29785156 C-52.10556149 28.12260367 -46.60178968 24.94770755 -41.09765625 21.7734375 C-39.98745117 21.13269287 -38.87724609 20.49194824 -37.73339844 19.83178711 C-35.53895515 18.56693885 -33.34302145 17.30467237 -31.14550781 16.04516602 C-26.12233906 13.16165176 -21.1300554 10.24615779 -16.19921875 7.20703125 C-14.89778931 6.4166748 -14.89778931 6.4166748 -13.57006836 5.61035156 C-11.97056761 4.63579624 -10.38064548 3.64526073 -8.80297852 2.63574219 C-3.71594703 -0.43897177 -3.71594703 -0.43897177 0 0 Z " fill="#0A5533" transform="translate(1541.84375,22.3359375)"/>
<path d="M0 0 C15.18 0 30.36 0 46 0 C49.54477947 7.08955894 52.99533029 14.03029668 56.06640625 21.3046875 C56.42226303 22.13859512 56.77811981 22.97250275 57.14476013 23.8316803 C58.28750006 26.51131498 59.42515322 29.19307237 60.5625 31.875 C62.16649192 35.64516085 63.77260136 39.41441787 65.37890625 43.18359375 C65.77510162 44.11424149 66.171297 45.04488922 66.57949829 46.0037384 C68.92580172 51.5078357 71.30022703 56.99819931 73.71484375 62.47265625 C80.7588854 78.46234568 87.14955403 94.53847072 93 111 C95.52055811 105.5248249 97.79082227 100.00341335 99.89013672 94.35424805 C106.29460079 77.16250254 113.5929027 60.35386447 120.81066895 43.4924469 C121.44966125 41.99958412 121.44966125 41.99958412 122.1015625 40.4765625 C122.52336792 39.49135117 122.94517334 38.50613983 123.37976074 37.49107361 C128.70306112 25.04134196 133.85482108 12.52444868 139 0 C154.51 0 170.02 0 186 0 C186 56.76 186 113.52 186 172 C173.46 172 160.92 172 148 172 C147.87967357 151.2414629 147.87967357 151.2414629 147.85351562 142.18359375 C147.8357919 136.07592656 147.81516271 129.96839797 147.77368164 123.86083984 C147.62411968 101.26157242 147.75167049 79.03224113 150.72758484 56.59353638 C150.99570799 54.04086218 151.04820558 51.56455137 151 49 C150.64510498 49.89565674 150.29020996 50.79131348 149.92456055 51.71411133 C140.2261568 76.13500528 129.85634968 100.21107544 119.13964844 124.20068359 C116.18983165 130.80889838 113.2808858 137.43486787 110.375 144.0625 C109.52912476 145.99109554 108.68282982 147.91950712 107.8359375 149.84765625 C107.50126465 150.61086182 107.1665918 151.37406738 106.82177734 152.16040039 C106.24398036 153.45383482 105.63353326 154.73293347 105 156 C96.75 156 88.5 156 80 156 C67.12674615 128.23055241 54.69407694 100.25134637 43.0625 71.9375 C42.77136322 71.2289386 42.48022644 70.5203772 42.18026733 69.79034424 C39.35338864 62.89718003 36.55854172 55.99810191 34 49 C34.39070378 54.72689491 34.79174991 60.4438414 35.4916687 66.141922 C36.9779229 78.38449737 37.26392144 90.43994724 37.1953125 102.76171875 C37.19156983 104.77480426 37.18872881 106.78789162 37.18673706 108.80097961 C37.17919914 114.03029654 37.15963863 119.25949756 37.1373291 124.48876953 C37.11665519 129.85252312 37.10768988 135.21629594 37.09765625 140.58007812 C37.07638064 151.05344384 37.04128225 161.52669403 37 172 C24.79 172 12.58 172 0 172 C0 115.24 0 58.48 0 0 Z M32 44 C33 46 33 46 33 46 Z M152 44 C153 46 153 46 153 46 Z " fill="#625349" transform="translate(2277,1871)"/>
<path d="M0 0 C14.664375 -0.061875 29.32875 -0.12375 44.4375 -0.1875 C49.03357178 -0.21481201 53.62964355 -0.24212402 58.36499023 -0.27026367 C64.0645752 -0.28381348 64.0645752 -0.28381348 66.74964905 -0.28633118 C68.58809094 -0.29087777 70.42652504 -0.30130057 72.26490784 -0.31672668 C95.20688166 -0.49927517 119.23211624 1.82622044 136.8125 18.25 C145.54465343 27.50577462 148.89847903 39.40327174 149.375 52 C148.85319547 65.24078995 144.72051459 76.97933596 136 87 C128.29617142 93.76290295 120.38904214 98.04935802 111 102 C111.43231934 102.61818604 111.86463867 103.23637207 112.31005859 103.87329102 C126.87574633 124.71595839 126.87574633 124.71595839 133.04467773 134.05029297 C136.90896335 139.88890791 140.83781759 145.68338839 144.77322388 151.47418213 C145.54303708 152.60701883 146.3124731 153.74011194 147.08151245 154.87347412 C148.16658461 156.47234411 149.25318932 158.07017371 150.33984375 159.66796875 C150.97269287 160.59891357 151.60554199 161.5298584 152.25756836 162.48901367 C153.36132006 164.07961003 154.51412133 165.63813196 155.72875977 167.14575195 C157 169 157 169 157 172 C150.67150491 172.46021835 144.34735376 172.77297458 138.00585938 172.98876953 C135.85513301 173.07875943 133.70549221 173.20122861 131.55859375 173.35791016 C114.24613484 174.58876806 114.24613484 174.58876806 108.88479614 170.31314087 C105.1733246 166.10513421 102.61234355 161.39259009 100.19073486 156.35952759 C98.2513611 152.51651767 95.83452894 149.00545591 93.4375 145.4375 C92.53107742 144.03825318 91.62709584 142.63741928 90.7265625 141.234375 C90.27958008 140.54021484 89.83259766 139.84605469 89.37207031 139.13085938 C88.91928711 138.42767578 88.46650391 137.72449219 88 137 C87.0497338 135.52587749 86.09921065 134.05192059 85.1484375 132.578125 C84.67994385 131.84924072 84.2114502 131.12035645 83.72875977 130.36938477 C82.79084417 128.92443533 81.84090498 127.48721391 80.87866211 126.05834961 C78.71669777 122.82736129 76.96685769 119.9193168 75.48046875 116.30078125 C73.94404063 112.35103261 73.94404063 112.35103261 69 108 C60.09 107.67 51.18 107.34 42 107 C42 128.45 42 149.9 42 172 C28.14 172 14.28 172 0 172 C0 115.24 0 58.48 0 0 Z M42 28 C42 44.83 42 61.66 42 79 C47.32125 79.061875 52.6425 79.12375 58.125 79.1875 C59.77258301 79.21481201 61.42016602 79.24212402 63.11767578 79.27026367 C75.59633996 79.38942421 90.14036046 79.00048865 99.9296875 70.28125 C105.01587447 64.96291342 107.78670955 59.66572859 108.125 52.265625 C107.83951014 45.80641701 106.39776763 40.82654998 102 36 C90.93602856 26.19096976 75.0002004 27.62273783 61.25 27.8125 C54.8975 27.874375 48.545 27.93625 42 28 Z " fill="#625449" transform="translate(1256,1871)"/>
<path d="M0 0 C26.97448889 -0.69912282 52.90548112 6.27356655 72.8046875 25.15625 C89.5794285 42.55936078 96.24188071 65.09697272 96.1171875 88.90625 C96.11154785 90.04368652 96.1059082 91.18112305 96.10009766 92.35302734 C95.74950211 116.78016483 88.06058146 137.6073867 70.8046875 155.15625 C70.11761719 155.85621094 69.43054688 156.55617188 68.72265625 157.27734375 C49.88983139 175.20172066 23.57419655 180.03617974 -1.5390625 179.4375 C-24.96582836 178.48776625 -47.06320227 170.63427086 -64.1953125 154.15625 C-84.89894477 131.29919386 -88.66813854 104.06224354 -87.1953125 74.15625 C-85.09812258 53.65493981 -75.16700283 33.37671928 -59.1953125 20.15625 C-41.50598883 7.17107245 -21.78458649 1.06526095 0 0 Z M-32.1953125 46.15625 C-44.13660703 62.53761016 -46.78682556 82.39343518 -44.5078125 102.09375 C-42.6340164 113.79196313 -38.78762295 124.00275017 -31.1953125 133.15625 C-30.66164063 133.80207031 -30.12796875 134.44789063 -29.578125 135.11328125 C-22.09368391 143.33184216 -11.71700461 147.92837446 -0.6796875 148.4921875 C14.12917336 148.77405454 25.9522993 146.28569316 37.1484375 136.00390625 C50.22017361 122.56180429 54.03323682 104.37897675 53.8046875 86.15625 C53.0636014 69.99686769 48.51887204 53.87043454 36.8046875 42.15625 C15.94787819 26.28693857 -13.78998066 26.15552999 -32.1953125 46.15625 Z " fill="#635449" transform="translate(247.1953125,1866.84375)"/>
<path d="M0 0 C0.72574219 0.64195313 1.45148438 1.28390625 2.19921875 1.9453125 C2.81152344 2.46351562 3.42382812 2.98171875 4.0546875 3.515625 C19.36199473 17.45683387 26.74404627 39.45363055 28.10546875 59.63671875 C28.151875 60.77947266 28.151875 60.77947266 28.19921875 61.9453125 C28.25078125 62.77933594 28.30234375 63.61335938 28.35546875 64.47265625 C29.20618396 89.74598723 21.46997896 114.23776579 4.19921875 132.9453125 C-12.71601441 150.65394309 -37.56392919 157.73034699 -61.39697266 158.29638672 C-86.73966333 158.5007969 -110.64543262 152.34501543 -129.80078125 134.9453125 C-130.43371094 134.40519531 -131.06664062 133.86507813 -131.71875 133.30859375 C-146.77710498 119.6285779 -154.86672967 96.53968174 -155.92480469 76.60913086 C-156.75666491 49.66353506 -151.83803343 25.61871956 -133.55859375 4.8359375 C-100.75502634 -29.54740511 -35.42121087 -30.00250712 0 0 Z M-101.80078125 26.9453125 C-113.60030055 41.57671643 -113.87895243 62.11288994 -112.80078125 79.9453125 C-111.11839096 93.88042816 -105.33021292 107.47064255 -94.80078125 116.9453125 C-82.27290972 126.58069195 -70.1908958 128.15810133 -54.80078125 126.9453125 C-43.38099626 125.10846429 -33.08518167 118.60036016 -26.23828125 109.3828125 C-14.76107199 92.20500261 -12.11414758 70.56475594 -15.98828125 50.5078125 C-19.35379686 37.07705717 -25.13570295 25.00311759 -36.80078125 16.9453125 C-58.28379512 4.26681251 -85.38577443 7.72573165 -101.80078125 26.9453125 Z " fill="#635449" transform="translate(1577.80078125,1888.0546875)"/>
<path d="M0 0 C14.6025 -0.0825 29.205 -0.165 44.25 -0.25 C48.81875977 -0.28641602 53.38751953 -0.32283203 58.09472656 -0.36035156 C63.78076172 -0.37841797 63.78076172 -0.37841797 66.46331787 -0.3817749 C68.29164555 -0.38781862 70.11995985 -0.40167469 71.94818115 -0.42230225 C94.7595279 -0.66625549 118.69399067 2.01440345 136.21875 18.02734375 C146.96361449 29.11299685 148.48585595 41.97621019 148.2734375 56.640625 C147.79374299 70.2145549 142.08867285 80.24292053 132.5625 89.625 C126.183786 95.17299776 118.63311151 98.52437727 111 102 C116.26667519 109.9275481 121.57841388 117.8220223 126.9375 125.6875 C128.04061965 127.30824207 129.14373845 128.92898472 130.24681091 130.54975891 C131.38863862 132.22730963 132.5307122 133.90469271 133.67285156 135.58203125 C137.1827042 140.73676899 140.69071281 145.89276076 144.19802856 151.04922485 C145.28727826 152.650424 146.37691097 154.25136256 147.46655273 155.85229492 C148.76272756 157.75766096 150.0573814 159.66406311 151.35009766 161.57177734 C152.34799283 163.04041679 153.35131531 164.50541641 154.36474609 165.96337891 C157 169.78651532 157 169.78651532 157 172 C150.59642949 172.28005518 144.19444658 172.47198399 137.78613281 172.60424805 C135.60910044 172.65940169 133.43247259 172.73435098 131.25683594 172.82983398 C113.20943922 173.60176061 113.20943922 173.60176061 107.90649414 169.75732422 C105.82413478 166.92068424 104.3888517 164.22539287 103 161 C102.21046182 159.72938941 101.39978736 158.47139364 100.55859375 157.234375 C99.84804409 156.07506579 99.14107776 154.9135536 98.4375 153.75 C93.58919308 145.86700127 88.60548499 138.07187874 83.43017578 130.39892578 C80.21481405 125.60200147 77.2928072 121.07633722 75.37646484 115.60644531 C73.95982992 112.76141575 73.95982992 112.76141575 69 108 C55.14 107.505 55.14 107.505 41 107 C41 128.45 41 149.9 41 172 C27.47 172 13.94 172 0 172 C0 115.24 0 58.48 0 0 Z M41 28 C41 44.83 41 61.66 41 79 C49.229375 79.0928125 49.229375 79.0928125 57.625 79.1875 C59.32479004 79.21481201 61.02458008 79.24212402 62.77587891 79.27026367 C75.99097636 79.3935547 90.64479867 78.86796496 100.80859375 69.296875 C106.68432101 62.8152574 107.47242994 57.09489231 107.30078125 48.44921875 C106.80047358 42.71192435 105.38887539 39.20705824 101.15234375 35.29296875 C89.30326768 26.45454721 74.75730007 27.62415815 60.75 27.8125 C54.2325 27.874375 47.715 27.93625 41 28 Z " fill="#615348" transform="translate(371,1871)"/>
<path d="M0 0 C87.16866917 0 87.16866917 0 103.1875 5.6875 C104.28892334 6.07095581 104.28892334 6.07095581 105.41259766 6.4621582 C125.4697319 13.72123969 140.55114615 25.7272923 150.25 45.125 C160.80535694 69.48572841 160.57208604 98.4050567 151 123 C143.24435315 141.87057096 128.64323145 155.17152829 110.13378906 163.14794922 C75.3608381 177.03325801 36.30119867 172 0 172 C0 115.24 0 58.48 0 0 Z M41 28 C41 65.95 41 103.9 41 143 C61.06694496 143.57805342 61.06694496 143.57805342 80 140 C80.91652344 139.70996094 81.83304688 139.41992188 82.77734375 139.12109375 C88.64189809 137.01338174 93.29049236 134.04938837 98 130 C98.59554687 129.52175781 99.19109375 129.04351563 99.8046875 128.55078125 C110.52552239 119.09262247 114.07159925 104.68024673 115.15966797 90.99121094 C116.17247756 73.78605555 113.05938922 57.48058799 102.125 43.75 C92.58429075 33.80909321 79.33237342 29.65362771 66 28 C57.75 28 49.5 28 41 28 Z " fill="#615248" transform="translate(2899,1871)"/>
<path d="M0 0 C-4.52991796 5.43733055 -9.34294216 10.46458931 -14.375 15.4375 C-15.47908203 16.53481445 -15.47908203 16.53481445 -16.60546875 17.65429688 C-18.40136074 19.43852723 -20.19955985 21.22036124 -22 23 C-24.26372873 21.89303485 -26.38565924 20.75761974 -28.5234375 19.4140625 C-44.07447895 9.6573817 -61.60293481 7.18380764 -79.5625 11.125 C-93.23351536 15.31199188 -104.02914251 22.50999843 -111.4296875 34.8671875 C-115.48549298 42.95862033 -118.56097887 51.92689659 -119 61 C-119.05027344 61.92554688 -119.10054687 62.85109375 -119.15234375 63.8046875 C-119.65316928 80.19169881 -116.15517745 97.03045009 -105.296875 109.74609375 C-93.34464677 121.47472587 -77.41252424 125.39676481 -61.1875 125.375 C-60.13103271 125.37556396 -59.07456543 125.37612793 -57.98608398 125.37670898 C-46.17784693 125.29520835 -46.17784693 125.29520835 -36 120 C-35.84021197 117.55416014 -35.74062855 115.13246453 -35.68359375 112.68359375 C-35.66494263 112.03588013 -35.6462915 111.3881665 -35.6270752 110.7208252 C-35.55859735 108.29319348 -35.49856383 105.86532952 -35.4375 103.4375 C-35.293125 98.013125 -35.14875 92.58875 -35 87 C-46.88 87 -58.76 87 -71 87 C-71 77.43 -71 67.86 -71 58 C-46.58 58 -22.16 58 3 58 C3.52141452 77.39483758 3.52141452 77.39483758 3.63476562 85.69140625 C3.71235961 91.34390772 3.80391254 96.99366073 3.98071289 102.64404297 C4.1224479 107.20253396 4.19978261 111.75807872 4.23340416 116.31860352 C4.25734497 118.05410169 4.30410725 119.789446 4.37449074 121.52368164 C4.58576771 126.94747473 4.58156 131.77495365 3 137 C-0.923551 140.92984609 -4.86069892 142.86247432 -10 145 C-11.75304883 145.88985232 -13.50371526 146.78444576 -15.25 147.6875 C-44.26990481 160.19098155 -79.37210906 161.0322277 -108.98779297 149.8203125 C-130.28721419 141.13721916 -145.4897589 127.54289437 -155.49609375 106.6015625 C-164.40093346 85.27620611 -165.4285214 58.92022707 -158 37 C-157.63777344 35.92234375 -157.27554687 34.8446875 -156.90234375 33.734375 C-148.8665674 12.48723752 -132.30395112 -2.73590271 -112.09375 -12.2109375 C-75.17621047 -28.75715413 -31.9309627 -25.08861355 0 0 Z " fill="#63554A" transform="translate(1222,1889)"/>
<path d="M0 0 C13.86 0 27.72 0 42 0 C42.01458252 3.26414795 42.02916504 6.5282959 42.04418945 9.89135742 C42.09467094 20.7120317 42.16128974 31.53256413 42.23571491 42.35309887 C42.2803202 48.90945885 42.31959798 55.4657581 42.34643555 62.0222168 C42.37256669 68.35712995 42.41303829 74.69180815 42.46318626 81.02657509 C42.47978877 83.43567277 42.49134402 85.84481102 42.49761391 88.25395775 C42.35368226 113.02918039 42.35368226 113.02918039 53.1875 134.75 C64.30800018 143.64640015 76.33338422 144.02716527 90 143 C94.05823275 142.20292847 97.38822803 140.99680287 101 139 C101.73347656 138.59910156 102.46695312 138.19820312 103.22265625 137.78515625 C111.09677922 132.70745079 114.66588635 124.58602125 116.63598633 115.67553711 C118.85677278 104.63163956 118.48155045 93.34320936 118.51171875 82.12890625 C118.52859432 79.75136912 118.54674836 77.37384076 118.56611633 74.99632263 C118.61330987 68.78720846 118.64331665 62.57812984 118.66955566 56.36889648 C118.69951694 50.01343773 118.74599323 43.65810112 118.79101562 37.30273438 C118.87669961 24.86853997 118.94266962 12.43435749 119 0 C132.2 0 145.4 0 159 0 C159.06805723 13.91822724 159.12297771 27.83634207 159.15543652 41.75469875 C159.17102322 48.21909761 159.1921324 54.6833757 159.22631836 61.14770508 C159.25916288 67.39823133 159.27690547 73.64864216 159.28463173 79.89924812 C159.29013052 82.27159502 159.30086684 84.64393634 159.31719017 87.01623344 C159.47947783 111.60280741 157.6405574 136.93157246 139.75 155.8125 C120.34834123 173.90544654 95.23634314 175.74131025 70.05224609 175.13623047 C53.78707984 174.4102696 38.19954934 169.64744132 25 160 C24.29359375 159.50113281 23.5871875 159.00226563 22.859375 158.48828125 C8.4135454 147.19892229 2.6543622 128.02108004 0.27453232 110.61937332 C-0.69461851 101.37249181 -0.35745992 91.99811387 -0.29296875 82.71484375 C-0.28736049 80.31775684 -0.28309622 77.92066644 -0.28010559 75.52357483 C-0.26875365 69.27161857 -0.23937145 63.01987765 -0.20599365 56.76800537 C-0.17508264 50.36554882 -0.16155568 43.96305684 -0.14648438 37.56054688 C-0.11449091 25.04025566 -0.06180379 12.52017958 0 0 Z " fill="#625449" transform="translate(1632,1871)"/>
<path d="M0 0 C41.58 0 83.16 0 126 0 C126 9.57 126 19.14 126 29 C98.28 29 70.56 29 42 29 C42 41.87 42 54.74 42 68 C65.43 68 88.86 68 113 68 C113 77.57 113 87.14 113 97 C89.57 97 66.14 97 42 97 C42 111.85 42 126.7 42 142 C70.71 142 99.42 142 129 142 C129 151.9 129 161.8 129 172 C86.43 172 43.86 172 0 172 C0 115.24 0 58.48 0 0 Z " fill="#625348" transform="translate(547,1871)"/>
<path d="M0 0 C41.58 0 83.16 0 126 0 C126 9.57 126 19.14 126 29 C97.95 29 69.9 29 41 29 C41 41.87 41 54.74 41 68 C64.76 68 88.52 68 113 68 C113 77.57 113 87.14 113 97 C89.24 97 65.48 97 41 97 C41 111.85 41 126.7 41 142 C70.04 142 99.08 142 129 142 C129 151.9 129 161.8 129 172 C86.43 172 43.86 172 0 172 C0 115.24 0 58.48 0 0 Z " fill="#615247" transform="translate(2741,1871)"/>
<path d="M0 0 C0.845625 0.825 1.69125 1.65 2.5625 2.5 C0.88999669 6.68125827 -2.14523802 9.65465439 -5.1875 12.875 C-5.70054687 13.42671875 -6.21359375 13.9784375 -6.7421875 14.546875 C-10.22899272 18.27898309 -13.80983523 21.90491904 -17.4375 25.5 C-21.10637318 24.13565988 -24.50095348 22.45350155 -27.95385742 20.63085938 C-42.76947331 12.89513152 -58.4180279 9.7612761 -75.05859375 13.26171875 C-80.65970499 15.18448828 -85.57747699 17.54087248 -88.8125 22.6875 C-89.72743757 26.80471906 -89.57106265 30.4325105 -88.4375 34.5 C-83.71109422 40.75553707 -76.33441383 43.76216856 -69.1328125 46.34765625 C-68.44663849 46.59959244 -67.76046448 46.85152863 -67.05349731 47.11109924 C-61.87875126 49.00278469 -56.68491201 50.8419529 -51.4921875 52.68359375 C-50.73955627 52.95072174 -49.98692505 53.21784973 -49.21148682 53.49307251 C-48.45462585 53.76154999 -47.69776489 54.03002747 -46.91796875 54.30664062 C-46.15919434 54.57581299 -45.40041992 54.84498535 -44.61865234 55.12231445 C-43.07859461 55.66669861 -41.53757095 56.20835771 -39.99560547 56.74731445 C-22.52679812 62.86231935 -4.60281214 69.24025877 5.1875 86.125 C10.46822385 97.10579931 11.47711957 109.85915759 7.5625 121.5 C1.8451514 136.41795579 -10.00122098 145.84432734 -24.1875 152.25 C-51.44110279 164.03682101 -84.96411412 161.9366643 -112.26757812 151.38427734 C-122.91942801 147.04348073 -132.42862819 141.6765589 -141.4375 134.5 C-136.61882753 128.69108254 -131.42493592 123.36934448 -126.0625 118.0625 C-125.23105469 117.23556641 -124.39960937 116.40863281 -123.54296875 115.55664062 C-121.5100896 113.53544469 -119.47490037 111.51663665 -117.4375 109.5 C-116.74769043 109.9655127 -116.05788086 110.43102539 -115.34716797 110.91064453 C-99.58872375 121.44013629 -83.59163255 127.76414066 -64.5625 127.9375 C-63.7070459 127.94773193 -62.8515918 127.95796387 -61.97021484 127.96850586 C-53.4607698 127.8508448 -45.09834554 126.05070461 -38.4375 120.5 C-34.72089343 116.29436625 -33.82785988 113.05688764 -34.12890625 107.6015625 C-34.81273461 102.94460482 -37.16691776 100.54988643 -40.6875 97.6875 C-45.8260442 93.89655288 -51.49669449 91.93440469 -57.49197388 89.86071777 C-59.47922339 89.1730623 -61.45965244 88.46826539 -63.43920898 87.75878906 C-66.13824927 86.79276795 -68.83924633 85.83264042 -71.54248047 84.87841797 C-119.03985295 68.09508558 -119.03985295 68.09508558 -128.546875 50.5 C-133.18691282 40.08026594 -134.49608107 28.61409332 -130.8125 17.625 C-124.54555114 2.80421568 -113.52638531 -6.73731173 -98.8359375 -13.046875 C-67.82103043 -24.53387762 -26.09602793 -22.21050265 0 0 Z " fill="#63554A" transform="translate(832.4375,1886.5)"/>
<path d="M0 0 C13.98375 -0.061875 27.9675 -0.12375 42.375 -0.1875 C46.75313965 -0.21481201 51.1312793 -0.24212402 55.64208984 -0.27026367 C61.08325195 -0.28381348 61.08325195 -0.28381348 63.64883423 -0.28633118 C65.40056664 -0.29086934 67.15229106 -0.3012734 68.90396118 -0.31672668 C92.99759813 -0.51823003 117.36729435 2.34991582 135.703125 19.546875 C145.39168781 29.89452371 148.45389948 43.08714038 148 57 C146.82179508 71.83483092 141.12820845 83.94116894 130 94 C112.9679892 106.74048052 91.53062524 111.23223847 70.58984375 111.09765625 C69.45343445 111.09614563 69.45343445 111.09614563 68.29406738 111.09460449 C65.50852916 111.08943755 62.72301279 111.07547724 59.9375 111.0625 C53.688125 111.041875 47.43875 111.02125 41 111 C41 131.13 41 151.26 41 172 C27.47 172 13.94 172 0 172 C0 115.24 0 58.48 0 0 Z M41 28 C41 46.15 41 64.3 41 83 C46.15625 83.061875 51.3125 83.12375 56.625 83.1875 C58.22037598 83.21481201 59.81575195 83.24212402 61.45947266 83.27026367 C73.97232643 83.34210559 87.45834915 82.53805548 98 75 C104.69565355 68.12300583 107.08912973 60.49868229 107 51 C105.97317782 44.54304608 103.8945899 39.47802906 99 35 C86.61968366 27.09157728 73.51720364 27.73895939 59.375 27.875 C53.31125 27.91625 47.2475 27.9575 41 28 Z " fill="#615247" transform="translate(1828,1871)"/>
<path d="M0 0 C41.91 0 83.82 0 127 0 C127 9.57 127 19.14 127 29 C98.95 29 70.9 29 42 29 C42 43.52 42 58.04 42 73 C66.09 73 90.18 73 115 73 C115 82.57 115 92.14 115 102 C90.91 102 66.82 102 42 102 C42 125.1 42 148.2 42 172 C28.14 172 14.28 172 0 172 C0 115.24 0 58.48 0 0 Z " fill="#625348" transform="translate(23,1871)"/>
<path d="M0 0 C51.81 0 103.62 0 157 0 C157 9.57 157 19.14 157 29 C137.86 29 118.72 29 99 29 C99 76.19 99 123.38 99 172 C85.47 172 71.94 172 58 172 C57 171 57 171 56.87695217 168.65928555 C56.87787396 167.61305051 56.87879576 166.56681547 56.87974548 165.48887634 C56.87837082 164.2926918 56.87699615 163.09650726 56.87557983 161.86407471 C56.87911943 160.52648901 56.88275425 159.18890356 56.88647461 157.85131836 C56.88675648 156.45217389 56.88659875 155.05302927 56.8860321 153.65388489 C56.88574412 149.84413541 56.89164102 146.03441714 56.89860606 142.22467494 C56.90483941 138.24748691 56.90544338 134.27029824 56.90663147 130.29310608 C56.90974484 122.75661461 56.91795831 115.22013757 56.92798096 107.68365246 C56.93914192 99.10580172 56.9446525 90.5279503 56.94967639 81.9500941 C56.96014092 64.30005288 56.97848647 46.65003145 57 29 C38.19 29 19.38 29 0 29 C0 19.43 0 9.86 0 0 Z " fill="#625349" transform="translate(2563,1871)"/>
<path d="M0 0 C51.81 0 103.62 0 157 0 C157 9.57 157 19.14 157 29 C137.86 29 118.72 29 99 29 C99 76.19 99 123.38 99 172 C85.47 172 71.94 172 58 172 C58 124.81 58 77.62 58 29 C38.86 29 19.72 29 0 29 C0 19.43 0 9.86 0 0 Z " fill="#605146" transform="translate(842,1871)"/>
<path d="M0 0 C13.86 0 27.72 0 42 0 C42 46.86 42 93.72 42 142 C69.39 142 96.78 142 125 142 C125 151.9 125 161.8 125 172 C83.75 172 42.5 172 0 172 C0 115.24 0 58.48 0 0 Z " fill="#63554A" transform="translate(2050,1871)"/>
<path d="M0 0 C13.86 0 27.72 0 42 0 C42 56.76 42 113.52 42 172 C28.14 172 14.28 172 0 172 C0 115.24 0 58.48 0 0 Z " fill="#63544A" transform="translate(2197,1871)"/>
<path d="M0 0 C13.53 0 27.06 0 41 0 C41 56.76 41 113.52 41 172 C27.47 172 13.94 172 0 172 C0 115.24 0 58.48 0 0 Z " fill="#5F5045" transform="translate(2501,1871)"/>
<path d="M0 0 C0.66 0.66 1.32 1.32 2 2 C1.33355469 2.65073486 0.66710937 3.30146973 -0.01953125 3.97192383 C-2.4855246 6.38682973 -4.94465031 8.80831972 -7.39941406 11.23461914 C-8.46378957 12.28389597 -9.53084037 13.33046611 -10.60058594 14.37426758 C-12.13665606 15.87400209 -13.66288225 17.38316681 -15.1875 18.89453125 C-16.10917969 19.80050049 -17.03085937 20.70646973 -17.98046875 21.63989258 C-20.32507841 23.8621964 -20.32507841 23.8621964 -20 27 C-21.32 26.34 -22.64 25.68 -24 25 C-19.18132753 19.19108254 -13.98743592 13.86934448 -8.625 8.5625 C-7.79355469 7.73556641 -6.96210937 6.90863281 -6.10546875 6.05664062 C-4.0725896 4.03544469 -2.03740037 2.01663665 0 0 Z " fill="#91877F" transform="translate(715,1996)"/>
<path d="M0 0 C0.66 0.33 1.32 0.66 2 1 C-3.28 6.28 -8.56 11.56 -14 17 C-14.66 16.67 -15.32 16.34 -16 16 C-10.96679794 10.22494276 -5.96260189 4.82082706 0 0 Z " fill="#9D948D" transform="translate(192,1884)"/>
<path d="M0 0 C0.66 0.33 1.32 0.66 2 1 C-2.29 5.29 -6.58 9.58 -11 14 C-11.66 13.67 -12.32 13.34 -13 13 C-8.96476648 8.18876004 -4.95532767 3.86757281 0 0 Z " fill="#A29993" transform="translate(1092,1887)"/>
<path d="M0 0 C0.66 0.33 1.32 0.66 2 1 C-1.96 4.96 -5.92 8.92 -10 13 C-10.66 12.67 -11.32 12.34 -12 12 C-8.32167983 7.47384007 -4.58913637 3.60575001 0 0 Z " fill="#A29993" transform="translate(1453,1885)"/>
</svg>
