<svg version="1.1" id="Layer_1" xmlns="http://www.w3.org/2000/svg" xmlns:xlink="http://www.w3.org/1999/xlink" x="0px" y="0px"
	 width="100%" viewBox="0 0 3099 2100" enable-background="new 0 0 3099 2100" xml:space="preserve">
<path fill="#FFFFFF" opacity="0.000000" stroke="none" 
	d="
M1942.000000,2102.000000 
	C1294.666626,2102.000000 648.333313,2102.000000 2.000000,2102.000000 
	C2.000000,1402.000000 2.000000,702.000000 2.000000,2.000000 
	C1035.333374,2.000000 2068.666748,2.000000 3102.000000,2.000000 
	C3102.000000,702.000000 3102.000000,1402.000000 3102.000000,2102.000000 
	C2715.666748,2102.000000 2329.333252,2102.000000 1942.000000,2102.000000 
M1773.986694,1312.988525 
	C1902.040161,1239.056030 2030.093628,1165.123535 2157.982422,1091.286011 
	C2157.982422,882.598999 2157.982422,674.494690 2157.982422,464.740356 
	C1952.428101,583.418457 1748.067749,701.407227 1544.222900,819.098267 
	C1542.132935,848.353577 1543.122192,1039.768311 1545.479126,1047.716187 
	C1614.493530,1007.866333 1683.374756,968.043640 1752.304810,928.305969 
	C1821.104126,888.643616 1889.767334,848.740784 1959.658447,808.709106 
	C1959.658447,865.754822 1959.658447,920.939453 1959.658447,976.272400 
	C1956.253174,978.300476 1953.144043,980.201721 1949.989136,982.023804 
	C1858.837280,1034.668701 1767.683838,1087.311035 1676.523804,1139.941895 
	C1634.694458,1164.091675 1592.768311,1188.076050 1551.109619,1212.516357 
	C1545.355713,1215.892334 1540.979980,1216.508301 1535.846680,1212.344360 
	C1534.058716,1210.893921 1531.840210,1209.975098 1529.820801,1208.809204 
	C1423.661011,1147.515503 1317.502686,1086.219727 1211.337402,1024.935547 
	C1207.992432,1023.004761 1204.577881,1021.194458 1200.187744,1018.771606 
	C1200.187744,1096.098633 1200.187744,1171.872681 1200.187744,1247.815308 
	C1287.817627,1298.424927 1375.155518,1348.865967 1462.924805,1399.556152 
	C1459.300781,1462.768188 1455.705811,1525.475220 1452.095703,1588.446045 
	C1438.402588,1588.879517 1426.093262,1589.373413 1413.778931,1589.642456 
	C1332.136475,1591.426392 1250.570190,1594.675049 1169.408936,1604.232910 
	C1151.606445,1606.329224 1134.023315,1610.354492 1116.385986,1613.734985 
	C1112.849243,1614.412964 1109.334595,1615.842651 1106.142944,1617.548828 
	C1100.078125,1620.791504 1099.935547,1624.468018 1105.885742,1627.515259 
	C1109.987061,1629.615845 1114.486084,1631.397705 1119.002808,1632.152710 
	C1143.282349,1636.212280 1167.500854,1641.331055 1191.968018,1643.426636 
	C1242.081299,1647.718628 1292.300293,1651.241089 1342.548218,1653.368042 
	C1396.813721,1655.664795 1451.156982,1656.554321 1505.475708,1657.075439 
	C1591.803833,1657.903442 1678.107178,1656.412231 1764.367432,1652.491211 
	C1818.635010,1650.024414 1872.857422,1647.032227 1926.726562,1639.817627 
	C1942.839966,1637.659668 1958.746826,1633.831299 1974.652588,1630.333130 
	C1979.278076,1629.315918 1984.318237,1627.794678 1986.487183,1621.763916 
	C1981.318115,1615.579468 1973.993286,1613.803589 1967.034912,1612.541382 
	C1946.083862,1608.741455 1925.096680,1604.773193 1903.948486,1602.498779 
	C1849.270630,1596.618042 1794.384277,1593.384521 1739.413086,1591.691284 
	C1707.434692,1590.706299 1675.456177,1589.719116 1643.479370,1588.683960 
	C1640.926270,1588.601318 1638.385498,1588.135132 1635.342163,1587.791016 
	C1631.745850,1524.698853 1628.184448,1462.220703 1624.594727,1399.244141 
	C1674.144165,1370.650024 1723.441040,1342.201416 1773.986694,1312.988525 
M1208.610474,615.676025 
	C1118.043213,667.936096 1027.522461,720.277222 936.814026,772.290955 
	C930.093079,776.144836 927.928711,780.289368 927.950867,787.926392 
	C928.234680,885.578857 928.138123,983.232544 928.138123,1080.885864 
	C928.138123,1084.183228 928.138123,1087.480713 928.138123,1090.303711 
	C958.687439,1110.355591 1118.552124,1201.462036 1126.651123,1203.294312 
	C1126.651123,1199.524780 1126.651123,1195.886108 1126.651123,1192.247559 
	C1126.651123,1096.593994 1126.849976,1000.939270 1126.361328,905.288147 
	C1126.309204,895.070068 1129.805664,890.218933 1138.257446,885.347290 
	C1450.425537,705.414673 1762.444214,525.223022 2074.476562,345.054749 
	C2077.830078,343.118347 2081.092529,341.024261 2085.758301,338.172211 
	C2018.966919,299.604126 1953.340942,261.708923 1887.488037,223.682770 
	C1661.425781,354.193817 1435.638550,484.546082 1208.610474,615.676025 
M1242.956299,427.934692 
	C1408.884277,332.122192 1574.812378,236.309677 1742.077271,139.725204 
	C1674.762817,100.869247 1609.125000,62.981098 1543.483887,25.091103 
	C1337.941284,143.762970 1133.001343,262.086914 928.613892,380.091858 
	C928.613892,484.579590 928.613892,588.055847 928.613892,693.311584 
	C995.294922,654.827148 1060.850098,616.992432 1126.651855,579.015503 
	C1126.651855,575.231323 1126.651855,571.925598 1126.651855,568.619934 
	C1126.651855,547.294739 1126.976074,525.961853 1126.474243,504.648468 
	C1126.301025,497.295502 1128.879517,493.466248 1135.190186,489.898102 
	C1170.834717,469.744171 1206.200317,449.097198 1242.956299,427.934692 
M2317.644775,2006.997803 
	C2316.710205,1979.017944 2315.775391,1951.038208 2314.824707,1922.581787 
	C2330.340576,1958.402222 2345.729248,1993.929321 2360.874756,2028.894531 
	C2369.767090,2028.894531 2377.289551,2028.894531 2385.103516,2028.894531 
	C2400.506104,1993.207520 2415.730713,1957.932861 2430.955322,1922.658203 
	C2430.909912,1943.030396 2429.349121,1963.070312 2428.791748,1983.137939 
	C2428.230957,2003.332397 2428.667969,2023.554321 2428.667969,2044.278076 
	C2441.640625,2044.278076 2453.476318,2044.278076 2465.479980,2044.278076 
	C2465.479980,1987.329224 2465.479980,1930.883423 2465.479980,1874.048340 
	C2450.315430,1874.048340 2435.759277,1874.048340 2420.373291,1874.048340 
	C2404.908691,1911.188232 2389.420654,1948.384888 2373.960938,1985.513550 
	C2357.897461,1947.801147 2342.054443,1910.606445 2326.602783,1874.330566 
	C2310.347656,1874.330566 2295.845947,1874.330566 2280.948486,1874.330566 
	C2280.948486,1931.172607 2280.948486,1987.340210 2280.948486,2044.159912 
	C2293.100098,2044.159912 2304.906982,2044.159912 2317.644531,2044.159912 
	C2317.644531,2032.147583 2317.644531,2020.571655 2317.644775,2006.997803 
M464.331696,1874.275269 
	C434.053680,1872.545776 383.088593,1873.054565 374.698212,1875.239868 
	C374.698212,1931.320068 374.698212,1987.472656 374.698212,2043.549683 
	C385.327972,2045.646484 408.265381,2045.274292 415.535217,2042.831055 
	C415.614258,2022.188965 415.491608,2001.382568 415.608978,1980.028076 
	C422.695862,1980.028076 428.369049,1980.524536 433.917511,1979.904541 
	C441.150787,1979.096436 445.340088,1981.905273 449.105957,1988.049194 
	C459.709930,2005.350098 470.931000,2022.276245 482.122803,2039.208618 
	C483.619263,2041.472900 486.295990,2044.421143 488.518829,2044.501709 
	C502.053833,2044.993652 515.615662,2044.747192 531.048828,2044.747192 
	C514.736267,2020.616455 499.442169,1997.992310 484.107788,1975.308594 
	C490.159973,1972.143433 495.388641,1969.883911 500.120300,1966.849487 
	C517.687866,1955.582886 523.955811,1938.939209 521.970825,1918.775513 
	C520.115479,1899.928955 509.431976,1887.515381 492.197876,1881.018188 
	C483.876801,1877.881104 474.863068,1876.581299 464.331696,1874.275269 
M1432.177124,1994.668701 
	C1441.751221,2019.238281 1459.339111,2035.403687 1484.325439,2043.211914 
	C1506.167847,2050.037842 1528.389526,2050.213379 1550.189087,2043.253906 
	C1580.611694,2033.541748 1599.974854,2012.827148 1605.936157,1981.356079 
	C1608.314087,1968.802856 1608.806274,1955.408325 1607.375488,1942.710205 
	C1603.402100,1907.441162 1580.363647,1882.501831 1545.806763,1873.716431 
	C1526.015991,1868.684937 1506.193237,1868.780396 1486.611206,1874.273193 
	C1455.356567,1883.040039 1435.635742,1903.398682 1428.476685,1935.132568 
	C1424.074097,1954.648560 1425.031982,1974.134644 1432.177124,1994.668701 
M163.958801,1949.484253 
	C163.961258,1955.480103 163.697952,1961.489868 164.009384,1967.469727 
	C166.006363,2005.812134 189.702499,2034.825928 226.865936,2044.546509 
	C247.011597,2049.815918 267.213898,2049.576904 287.032684,2043.468384 
	C315.556824,2034.676880 334.245911,2015.840820 342.500061,1986.889648 
	C346.118744,1974.197144 346.744720,1961.286987 345.813965,1948.267456 
	C343.141296,1910.879883 320.161255,1882.805420 283.808868,1874.068970 
	C272.305634,1871.304443 260.020264,1869.957642 248.225845,1870.561035 
	C198.255707,1873.117554 168.307083,1903.005493 163.958801,1949.484253 
M1300.484985,2018.978760 
	C1300.650269,2006.149902 1300.132812,1993.290527 1300.804443,1980.347656 
	C1311.148804,1980.347656 1320.098267,1980.347656 1329.220459,1980.347656 
	C1340.362183,1997.553955 1351.264771,2014.702148 1362.490234,2031.636230 
	C1373.094482,2047.632812 1367.015991,2044.435791 1386.822998,2044.764160 
	C1396.047363,2044.917114 1405.276489,2044.790161 1416.473755,2044.790161 
	C1399.975586,2020.492920 1384.698486,1997.994019 1369.182739,1975.143555 
	C1373.336914,1973.183838 1376.674805,1971.715820 1379.917847,1970.061646 
	C1399.430298,1960.109253 1409.402710,1942.631348 1407.647461,1921.100830 
	C1405.902222,1899.694092 1393.930176,1886.436279 1374.064453,1879.608521 
	C1361.636230,1875.337036 1348.808716,1873.720825 1335.733398,1873.707886 
	C1313.067261,1873.685303 1290.401245,1873.656860 1267.735229,1873.707397 
	C1265.227173,1873.712891 1262.720093,1874.216675 1260.431030,1874.465698 
	C1260.431030,1931.499023 1260.431030,1987.695557 1260.431030,2044.299194 
	C1273.862061,2044.299194 1286.742432,2044.299194 1300.485107,2044.299194 
	C1300.485107,2036.201294 1300.485107,2028.584351 1300.484985,2018.978760 
M2909.918701,2044.802612 
	C2926.241699,2044.798950 2942.574951,2045.142456 2958.884521,2044.669800 
	C2969.831299,2044.352539 2980.945312,2043.880249 2991.635742,2041.737427 
	C3024.992920,2035.051636 3048.997559,2017.175659 3056.795654,1982.443970 
	C3058.957764,1972.813599 3059.823486,1962.598511 3059.400146,1952.732666 
	C3057.697266,1913.062256 3036.580322,1887.473267 2997.981689,1878.112427 
	C2988.027588,1875.698608 2977.642822,1874.325317 2967.404541,1873.975342 
	C2947.772217,1873.304443 2928.103027,1873.684937 2908.449219,1873.706665 
	C2906.596924,1873.708740 2904.744873,1874.260254 2902.383545,1874.637939 
	C2902.383545,1877.179077 2902.383545,1879.140015 2902.383545,1881.100952 
	C2902.382812,1932.735229 2902.382080,1984.369507 2902.381836,2036.003784 
	C2902.381836,2037.336304 2902.476318,2038.675049 2902.378174,2040.000000 
	C2902.059570,2044.305054 2904.798584,2044.874634 2909.918701,2044.802612 
M1132.532715,1907.076782 
	C1157.253662,1895.015015 1180.774292,1897.630493 1202.841431,1913.357910 
	C1209.982056,1906.052368 1216.668213,1899.211914 1224.014038,1891.696533 
	C1219.998413,1888.882446 1216.157227,1885.776611 1211.944580,1883.303711 
	C1177.652100,1863.173096 1127.238037,1866.496460 1095.809204,1890.909790 
	C1079.923584,1903.249390 1069.261230,1919.205200 1066.013184,1939.054321 
	C1064.151611,1950.432007 1063.232056,1962.406250 1064.603394,1973.784668 
	C1068.224731,2003.828491 1084.179321,2025.939941 1112.190918,2037.976440 
	C1122.452148,2042.385620 1133.682129,2045.389771 1144.760010,2046.880493 
	C1171.885986,2050.530518 1197.851440,2046.373169 1221.677124,2031.899048 
	C1226.129028,2029.194458 1228.004272,2026.001587 1227.927124,2020.610840 
	C1227.616943,1998.949463 1227.807739,1977.281006 1227.766113,1955.615234 
	C1227.763062,1954.041626 1227.381104,1952.468750 1227.129272,1950.542969 
	C1203.094727,1950.542969 1179.598389,1950.542969 1155.712891,1950.542969 
	C1155.712891,1959.843994 1155.712891,1968.662109 1155.712891,1978.293701 
	C1167.570068,1978.293701 1178.811157,1978.293701 1191.280640,1978.293701 
	C1191.280640,1987.982788 1190.993896,1996.885010 1191.387695,2005.757202 
	C1191.625122,2011.105469 1189.199585,2013.767456 1184.581787,2015.285156 
	C1172.531250,2019.245605 1160.315308,2019.129150 1148.073975,2016.541016 
	C1124.703735,2011.599854 1110.285278,1996.991577 1106.536743,1973.711914 
	C1105.382324,1966.542847 1105.340576,1959.061279 1105.814575,1951.789551 
	C1107.034790,1933.075928 1114.808472,1917.876953 1132.532715,1907.076782 
M1676.166016,1875.284180 
	C1673.014893,1874.743652 1669.866089,1873.761597 1666.712036,1873.744141 
	C1656.556396,1873.687744 1646.363159,1873.320801 1636.175293,1873.954224 
	C1636.175293,1909.916504 1635.906372,1944.539795 1636.379761,1979.153076 
	C1636.487183,1987.001343 1638.463867,1995.032959 1640.803467,2002.602051 
	C1647.395752,2023.929810 1661.808838,2037.832153 1683.275146,2043.870850 
	C1704.570557,2049.861572 1726.099854,2049.874512 1747.388306,2043.841431 
	C1768.074707,2037.978882 1782.540894,2024.786377 1788.657837,2004.078491 
	C1791.730591,1993.676025 1793.599609,1982.578613 1793.848022,1971.745850 
	C1794.543457,1941.447632 1794.126953,1911.123535 1794.089111,1880.809570 
	C1794.086304,1878.602295 1793.600342,1876.395386 1793.322632,1874.050659 
	C1780.496582,1874.050659 1768.254761,1874.050659 1754.872192,1874.050659 
	C1754.872192,1878.000854 1754.872314,1881.588501 1754.872070,1885.176147 
	C1754.870239,1912.492065 1754.931641,1939.808105 1754.819336,1967.123535 
	C1754.793335,1973.440308 1754.649292,1979.824341 1753.738403,1986.057373 
	C1750.680786,2006.976685 1738.159302,2017.819092 1717.179688,2018.194946 
	C1714.849854,2018.236694 1712.511597,2018.230469 1710.187256,2018.085571 
	C1694.288452,2017.095215 1683.773315,2009.312744 1679.888672,1993.812500 
	C1677.650024,1984.879761 1676.783936,1975.417847 1676.656616,1966.175537 
	C1676.248169,1936.533325 1676.471802,1906.882446 1676.166016,1875.284180 
M640.957520,1970.215576 
	C648.198914,1970.215576 655.440247,1970.215576 663.165344,1970.215576 
	C663.165344,1960.351318 663.165344,1951.545776 663.165344,1941.489014 
	C639.265747,1941.489014 615.828247,1941.489014 592.543701,1941.489014 
	C592.543701,1927.732300 592.543701,1915.236938 592.543701,1901.671143 
	C620.650330,1901.671143 648.103394,1901.671143 675.396729,1901.671143 
	C675.396729,1891.761841 675.396729,1882.960083 675.396729,1874.054932 
	C633.762451,1874.054932 592.858948,1874.054932 551.371826,1874.054932 
	C551.371826,1930.885010 551.371826,1987.319458 551.371826,2044.252686 
	C594.066711,2044.252686 636.202209,2044.252686 678.579712,2044.252686 
	C678.579712,2034.650757 678.579712,2025.602905 678.579712,2016.022339 
	C663.458435,2016.022339 649.151306,2016.054688 634.844421,2016.013184 
	C620.671509,2015.972046 606.486084,2016.209717 592.535278,2015.846069 
	C592.535278,1999.982544 592.535278,1985.486572 592.535278,1970.215576 
	C608.449829,1970.215576 623.711243,1970.215576 640.957520,1970.215576 
M2785.679443,1926.869141 
	C2786.216797,1918.735352 2784.524902,1910.449951 2786.961670,1901.720215 
	C2814.522461,1901.720215 2841.715332,1901.720215 2869.391602,1901.720215 
	C2869.391602,1892.183716 2869.391602,1883.398926 2869.391602,1874.186035 
	C2827.728516,1874.186035 2786.610352,1874.186035 2745.064941,1874.186035 
	C2745.064941,1931.095825 2745.064941,1987.482056 2745.064941,2044.204224 
	C2787.809814,2044.204224 2829.931641,2044.204224 2872.491943,2044.204224 
	C2873.103271,2034.535522 2873.411377,2025.484497 2872.351074,2015.754395 
	C2843.046631,2015.754395 2814.849609,2015.754395 2786.433350,2015.754395 
	C2786.433350,2000.267578 2786.433350,1985.544067 2786.433350,1969.849365 
	C2810.304932,1969.849365 2833.439209,1969.849365 2856.741699,1969.849365 
	C2856.741699,1960.030762 2856.741699,1951.215820 2856.741699,1941.491699 
	C2832.937988,1941.491699 2809.753174,1941.491699 2786.948730,1941.491699 
	C2786.337891,1939.987427 2785.908936,1939.400146 2785.886719,1938.797607 
	C2785.762695,1935.473755 2785.738037,1932.146362 2785.679443,1926.869141 
M825.605652,1883.308838 
	C808.289368,1873.672729 789.635620,1869.449219 769.941162,1870.309204 
	C752.352600,1871.077393 735.620911,1875.142334 721.417847,1886.265625 
	C697.497375,1904.999512 697.849915,1936.419067 722.543457,1954.087646 
	C729.475342,1959.047729 737.565857,1962.626221 745.522888,1965.859009 
	C756.912537,1970.486816 768.727539,1974.056030 780.239990,1978.397949 
	C785.503967,1980.383057 790.845093,1982.578003 795.511536,1985.649536 
	C806.006531,1992.557617 805.591492,2006.179688 794.923035,2012.849243 
	C792.429138,2014.408325 789.541626,2015.489014 786.696472,2016.307373 
	C776.891296,2019.127319 766.956116,2018.768066 757.034973,2016.937256 
	C743.051453,2014.356812 730.730530,2007.931885 718.621521,1999.610107 
	C710.871277,2007.396484 703.307129,2014.995972 694.938965,2023.403320 
	C732.737549,2048.657959 771.327209,2055.793945 812.775635,2039.508057 
	C819.968140,2036.681885 826.780884,2031.539917 832.277466,2025.990356 
	C851.800903,2006.278931 848.591187,1975.671265 825.577209,1960.296143 
	C819.287598,1956.094116 812.151001,1952.944702 805.057678,1950.207397 
	C792.031128,1945.180542 778.674011,1941.014526 765.608093,1936.083130 
	C760.377625,1934.109009 755.049255,1931.717773 750.654846,1928.354370 
	C743.009949,1922.502930 743.385681,1911.965454 751.060242,1906.094604 
	C753.627991,1904.130371 756.828552,1902.768188 759.946838,1901.790894 
	C769.386963,1898.831787 779.191956,1898.705322 788.542969,1901.292358 
	C798.643921,1904.086792 808.332520,1908.371826 819.161438,1912.360474 
	C825.024170,1906.217651 831.526367,1899.404663 838.566101,1892.028564 
	C833.960999,1888.863037 830.427612,1886.434204 825.605652,1883.308838 
M1858.929932,2044.649780 
	C1863.135864,2044.649780 1867.341797,2044.649780 1872.442261,2044.649780 
	C1872.442261,2023.894409 1872.442261,2004.402466 1872.442261,1983.968750 
	C1876.950439,1983.968750 1880.542847,1984.102295 1884.122437,1983.944580 
	C1897.072754,1983.374023 1910.076904,1983.261108 1922.949707,1981.914185 
	C1935.307373,1980.621216 1946.923584,1976.342407 1957.206299,1969.111084 
	C1974.553345,1956.911011 1980.319336,1939.706543 1978.010620,1919.336060 
	C1975.886475,1900.594116 1965.225586,1887.890137 1947.914062,1881.754028 
	C1937.072998,1877.911499 1925.427979,1874.861328 1914.021606,1874.386230 
	C1887.429443,1873.277954 1860.763428,1873.934937 1834.127441,1873.926514 
	C1833.582642,1873.926270 1833.037598,1874.527954 1832.392578,1874.907837 
	C1832.392578,1931.256226 1832.392578,1987.659180 1832.392578,2044.650146 
	C1841.029053,2044.650146 1848.986084,2044.650146 1858.929932,2044.649780 
M87.093025,1902.019775 
	C108.929596,1902.019775 130.766174,1902.019775 152.743164,1902.019775 
	C152.743164,1891.872314 152.743164,1883.079224 152.743164,1874.173828 
	C110.895164,1874.173828 69.741798,1874.173828 28.134308,1874.173828 
	C28.134308,1931.096558 28.134308,1987.513672 28.134308,2044.336182 
	C41.514145,2044.336182 54.389355,2044.336182 68.288612,2044.336182 
	C68.288612,2021.431885 68.288612,1998.956909 68.288612,1975.562012 
	C92.770882,1975.562012 116.251343,1975.562012 140.185425,1975.562012 
	C140.185425,1965.466675 140.185425,1956.328857 140.185425,1946.237305 
	C116.070488,1946.237305 92.584198,1946.237305 68.790863,1946.237305 
	C68.790863,1931.156982 68.790863,1917.040894 68.790863,1902.019775 
	C74.610939,1902.019775 79.868347,1902.019775 87.093025,1902.019775 
M2714.621582,1873.659180 
	C2665.763184,1873.659180 2616.904785,1873.659180 2567.594238,1873.659180 
	C2567.594238,1883.420776 2567.594238,1892.270630 2567.594238,1902.151123 
	C2586.547607,1902.151123 2605.014404,1902.151123 2624.228271,1902.151123 
	C2624.228271,1949.986816 2624.228271,1996.800659 2624.228271,2043.447876 
	C2635.031982,2045.625000 2658.163086,2045.281616 2666.002197,2042.701294 
	C2666.002197,1996.256104 2666.002197,1949.493896 2666.002197,1901.850586 
	C2685.418457,1901.850586 2703.910645,1901.850586 2722.869629,1901.850586 
	C2722.869629,1892.156982 2722.869629,1883.365356 2722.869629,1874.233154 
	C2720.394531,1874.009766 2718.458252,1873.835083 2714.621582,1873.659180 
M903.000000,1873.678223 
	C893.675720,1873.678223 884.347656,1873.512817 875.028198,1873.724487 
	C865.543701,1873.939819 855.966919,1872.733765 846.921265,1874.483521 
	C846.921265,1884.071045 846.921265,1892.855469 846.921265,1901.780273 
	C866.197449,1902.460327 884.713013,1901.446899 904.051025,1902.413818 
	C904.051025,1950.402588 904.051025,1997.197021 904.051025,2044.019531 
	C917.800537,2044.019531 930.601257,2044.019531 944.341064,2044.019531 
	C944.341064,1996.617920 944.341064,1949.828491 944.341064,1901.848389 
	C964.023743,1901.848389 982.791931,1901.848389 1001.478394,1901.848389 
	C1001.478394,1891.839355 1001.478394,1883.044922 1001.478394,1873.678101 
	C968.859436,1873.678101 936.929688,1873.678101 903.000000,1873.678223 
M2082.893066,1873.674561 
	C2073.410156,1874.075928 2063.833740,1872.781006 2054.509521,1874.484009 
	C2054.509521,1931.385254 2054.509521,1987.525513 2054.509521,2043.575439 
	C2067.546875,2045.624146 2170.205078,2045.028931 2176.927246,2042.997925 
	C2176.927246,2034.144043 2176.927246,2025.347168 2176.927246,2015.768311 
	C2149.327881,2015.768311 2122.477783,2015.768311 2094.613525,2015.768311 
	C2094.613525,1968.193359 2094.613525,1921.425537 2094.613525,1873.674561 
	C2090.687988,1873.674561 2087.779053,1873.674561 2082.893066,1873.674561 
M2504.386963,2006.998169 
	C2504.386963,2019.241821 2504.386963,2031.485352 2504.386963,2044.238159 
	C2518.497314,2044.238159 2531.658936,2044.238159 2544.993652,2044.238159 
	C2544.993652,1987.215820 2544.993652,1930.779419 2544.993652,1873.679321 
	C2531.215088,1873.783936 2518.094727,1873.265625 2504.387207,1874.052856 
	C2504.387207,1918.481201 2504.387207,1961.739990 2504.386963,2006.998169 
M2201.590820,1885.132690 
	C2201.590820,1937.956299 2201.590820,1990.779907 2201.590820,2043.810303 
	C2215.614014,2043.810303 2228.620361,2043.810303 2241.639160,2043.810303 
	C2241.639160,1986.869629 2241.639160,1930.760254 2241.639160,1874.167480 
	C2228.328125,1874.167480 2215.525146,1874.167480 2202.047607,1874.167480 
	C2201.884521,1877.378052 2201.737793,1880.268921 2201.590820,1885.132690 
z"/>
<path fill="#5F5045" opacity="1.000000" stroke="none" 
	d="
M1773.362305,1313.370728 
	C1723.441040,1342.201416 1674.144165,1370.650024 1624.594727,1399.244141 
	C1628.184448,1462.220703 1631.745850,1524.698853 1635.342163,1587.791016 
	C1638.385498,1588.135132 1640.926270,1588.601318 1643.479370,1588.683960 
	C1675.456177,1589.719116 1707.434692,1590.706299 1739.413086,1591.691284 
	C1794.384277,1593.384521 1849.270630,1596.618042 1903.948486,1602.498779 
	C1925.096680,1604.773193 1946.083862,1608.741455 1967.034912,1612.541382 
	C1973.993286,1613.803589 1981.318115,1615.579468 1986.487183,1621.763916 
	C1984.318237,1627.794678 1979.278076,1629.315918 1974.652588,1630.333130 
	C1958.746826,1633.831299 1942.839966,1637.659668 1926.726562,1639.817627 
	C1872.857422,1647.032227 1818.635010,1650.024414 1764.367432,1652.491211 
	C1678.107178,1656.412231 1591.803833,1657.903442 1505.475708,1657.075439 
	C1451.156982,1656.554321 1396.813721,1655.664795 1342.548218,1653.368042 
	C1292.300293,1651.241089 1242.081299,1647.718628 1191.968018,1643.426636 
	C1167.500854,1641.331055 1143.282349,1636.212280 1119.002808,1632.152710 
	C1114.486084,1631.397705 1109.987061,1629.615845 1105.885742,1627.515259 
	C1099.935547,1624.468018 1100.078125,1620.791504 1106.142944,1617.548828 
	C1109.334595,1615.842651 1112.849243,1614.412964 1116.385986,1613.734985 
	C1134.023315,1610.354492 1151.606445,1606.329224 1169.408936,1604.232910 
	C1250.570190,1594.675049 1332.136475,1591.426392 1413.778931,1589.642456 
	C1426.093262,1589.373413 1438.402588,1588.879517 1452.095703,1588.446045 
	C1455.705811,1525.475220 1459.300781,1462.768188 1462.924805,1399.556152 
	C1375.155518,1348.865967 1287.817627,1298.424927 1200.187744,1247.815308 
	C1200.187744,1171.872681 1200.187744,1096.098633 1200.187744,1018.771606 
	C1204.577881,1021.194458 1207.992432,1023.004761 1211.337402,1024.935547 
	C1317.502686,1086.219727 1423.661011,1147.515503 1529.820801,1208.809204 
	C1531.840210,1209.975098 1534.058716,1210.893921 1535.846680,1212.344360 
	C1540.979980,1216.508301 1545.355713,1215.892334 1551.109619,1212.516357 
	C1592.768311,1188.076050 1634.694458,1164.091675 1676.523804,1139.941895 
	C1767.683838,1087.311035 1858.837280,1034.668701 1949.989136,982.023804 
	C1953.144043,980.201721 1956.253174,978.300476 1959.658447,976.272400 
	C1959.658447,920.939453 1959.658447,865.754822 1959.658447,808.709106 
	C1889.767334,848.740784 1821.104126,888.643616 1752.304810,928.305969 
	C1683.374756,968.043640 1614.493530,1007.866333 1545.479126,1047.716187 
	C1543.122192,1039.768311 1542.132935,848.353577 1544.222900,819.098267 
	C1748.067749,701.407227 1952.428101,583.418457 2157.982422,464.740356 
	C2157.982422,674.494690 2157.982422,882.598999 2157.982422,1091.286011 
	C2030.093628,1165.123535 1902.040161,1239.056030 1773.362305,1313.370728 
z"/>
<path fill="#095533" opacity="1.000000" stroke="none" 
	d="
M1209.230957,615.287231 
	C1435.638550,484.546082 1661.425781,354.193817 1887.488037,223.682770 
	C1953.340942,261.708923 2018.966919,299.604126 2085.758301,338.172211 
	C2081.092529,341.024261 2077.830078,343.118347 2074.476562,345.054749 
	C1762.444214,525.223022 1450.425537,705.414673 1138.257446,885.347290 
	C1129.805664,890.218933 1126.309204,895.070068 1126.361328,905.288147 
	C1126.849976,1000.939270 1126.651123,1096.593994 1126.651123,1192.247559 
	C1126.651123,1195.886108 1126.651123,1199.524780 1126.651123,1203.294312 
	C1118.552124,1201.462036 958.687439,1110.355591 928.138123,1090.303711 
	C928.138123,1087.480713 928.138123,1084.183228 928.138123,1080.885864 
	C928.138123,983.232544 928.234680,885.578857 927.950867,787.926392 
	C927.928711,780.289368 930.093079,776.144836 936.814026,772.290955 
	C1027.522461,720.277222 1118.043213,667.936096 1209.230957,615.287231 
z"/>
<path fill="#095533" opacity="1.000000" stroke="none" 
	d="
M1242.308594,428.276428 
	C1206.200317,449.097198 1170.834717,469.744171 1135.190186,489.898102 
	C1128.879517,493.466248 1126.301025,497.295502 1126.474243,504.648468 
	C1126.976074,525.961853 1126.651855,547.294739 1126.651855,568.619934 
	C1126.651855,571.925598 1126.651855,575.231323 1126.651855,579.015503 
	C1060.850098,616.992432 995.294922,654.827148 928.613892,693.311584 
	C928.613892,588.055847 928.613892,484.579590 928.613892,380.091858 
	C1133.001343,262.086914 1337.941284,143.762970 1543.483887,25.091103 
	C1609.125000,62.981098 1674.762817,100.869247 1742.077271,139.725204 
	C1574.812378,236.309677 1408.884277,332.122192 1242.308594,428.276428 
z"/>
<path fill="#625348" opacity="1.000000" stroke="none" 
	d="
M2317.644531,2007.996826 
	C2317.644531,2020.571655 2317.644531,2032.147583 2317.644531,2044.159912 
	C2304.906982,2044.159912 2293.100098,2044.159912 2280.948486,2044.159912 
	C2280.948486,1987.340210 2280.948486,1931.172607 2280.948486,1874.330566 
	C2295.845947,1874.330566 2310.347656,1874.330566 2326.602783,1874.330566 
	C2342.054443,1910.606445 2357.897461,1947.801147 2373.960938,1985.513550 
	C2389.420654,1948.384888 2404.908691,1911.188232 2420.373291,1874.048340 
	C2435.759277,1874.048340 2450.315430,1874.048340 2465.479980,1874.048340 
	C2465.479980,1930.883423 2465.479980,1987.329224 2465.479980,2044.278076 
	C2453.476318,2044.278076 2441.640625,2044.278076 2428.667969,2044.278076 
	C2428.667969,2023.554321 2428.230957,2003.332397 2428.791748,1983.137939 
	C2429.349121,1963.070312 2430.909912,1943.030396 2430.955322,1922.658203 
	C2415.730713,1957.932861 2400.506104,1993.207520 2385.103516,2028.894531 
	C2377.289551,2028.894531 2369.767090,2028.894531 2360.874756,2028.894531 
	C2345.729248,1993.929321 2330.340576,1958.402222 2314.824707,1922.581787 
	C2315.775391,1951.038208 2316.710205,1979.017944 2317.644531,2007.996826 
z"/>
<path fill="#615248" opacity="1.000000" stroke="none" 
	d="
M465.247314,1874.362427 
	C474.863068,1876.581299 483.876801,1877.881104 492.197876,1881.018188 
	C509.431976,1887.515381 520.115479,1899.928955 521.970825,1918.775513 
	C523.955811,1938.939209 517.687866,1955.582886 500.120300,1966.849487 
	C495.388641,1969.883911 490.159973,1972.143433 484.107788,1975.308594 
	C499.442169,1997.992310 514.736267,2020.616455 531.048828,2044.747192 
	C515.615662,2044.747192 502.053833,2044.993652 488.518829,2044.501709 
	C486.295990,2044.421143 483.619263,2041.472900 482.122803,2039.208618 
	C470.931000,2022.276245 459.709930,2005.350098 449.105957,1988.049194 
	C445.340088,1981.905273 441.150787,1979.096436 433.917511,1979.904541 
	C428.369049,1980.524536 422.695862,1980.028076 415.608978,1980.028076 
	C415.491608,2001.382568 415.614258,2022.188965 415.535217,2042.831055 
	C408.265381,2045.274292 385.327972,2045.646484 374.698212,2043.549683 
	C374.698212,1987.472656 374.698212,1931.320068 374.698212,1875.239868 
	C383.088593,1873.054565 434.053680,1872.545776 465.247314,1874.362427 
M455.842651,1951.860962 
	C459.047943,1951.007202 462.356934,1950.425781 465.440216,1949.251587 
	C477.439697,1944.681519 483.036896,1935.685425 482.132507,1922.834717 
	C481.376190,1912.087891 474.863586,1905.043823 462.222229,1902.507202 
	C447.174530,1899.487671 431.938385,1900.197754 416.857971,1900.788330 
	C414.771057,1911.307007 415.092682,1945.430054 417.123688,1952.050537 
	C429.499847,1952.050537 441.780334,1952.050537 455.842651,1951.860962 
z"/>
<path fill="#615247" opacity="1.000000" stroke="none" 
	d="
M1431.959961,1993.914795 
	C1425.031982,1974.134644 1424.074097,1954.648560 1428.476685,1935.132568 
	C1435.635742,1903.398682 1455.356567,1883.040039 1486.611206,1874.273193 
	C1506.193237,1868.780396 1526.015991,1868.684937 1545.806763,1873.716431 
	C1580.363647,1882.501831 1603.402100,1907.441162 1607.375488,1942.710205 
	C1608.806274,1955.408325 1608.314087,1968.802856 1605.936157,1981.356079 
	C1599.974854,2012.827148 1580.611694,2033.541748 1550.189087,2043.253906 
	C1528.389526,2050.213379 1506.167847,2050.037842 1484.325439,2043.211914 
	C1459.339111,2035.403687 1441.751221,2019.238281 1431.959961,1993.914795 
M1563.092041,1932.551758 
	C1562.492188,1931.001465 1561.971680,1929.414795 1561.280640,1927.906372 
	C1552.294800,1908.293823 1536.592285,1898.996948 1514.010376,1899.887207 
	C1494.321899,1900.663452 1478.776489,1911.946411 1472.162964,1931.365234 
	C1465.498413,1950.932983 1465.811035,1970.646973 1473.818604,1989.865479 
	C1479.208740,2002.802124 1488.531128,2011.857544 1502.124268,2016.102173 
	C1529.570557,2024.672729 1555.683472,2010.534302 1563.677246,1982.381104 
	C1568.221680,1966.375854 1567.924927,1950.177490 1563.092041,1932.551758 
z"/>
<path fill="#615247" opacity="1.000000" stroke="none" 
	d="
M164.011292,1948.555054 
	C168.307083,1903.005493 198.255707,1873.117554 248.225845,1870.561035 
	C260.020264,1869.957642 272.305634,1871.304443 283.808868,1874.068970 
	C320.161255,1882.805420 343.141296,1910.879883 345.813965,1948.267456 
	C346.744720,1961.286987 346.118744,1974.197144 342.500061,1986.889648 
	C334.245911,2015.840820 315.556824,2034.676880 287.032684,2043.468384 
	C267.213898,2049.576904 247.011597,2049.815918 226.865936,2044.546509 
	C189.702499,2034.825928 166.006363,2005.812134 164.009384,1967.469727 
	C163.697952,1961.489868 163.961258,1955.480103 164.011292,1948.555054 
M228.308685,1906.943481 
	C220.253464,1912.208130 214.249802,1919.334229 210.893311,1928.251953 
	C203.206421,1948.675537 202.857269,1969.402588 211.317245,1989.583008 
	C219.132523,2008.225586 233.687866,2017.959595 254.162048,2018.208374 
	C275.012268,2018.461792 290.094482,2009.096436 298.279785,1990.033325 
	C307.076050,1969.546997 307.080933,1948.416870 298.634735,1927.864502 
	C291.229736,1909.845825 276.926697,1900.738159 257.424805,1899.856567 
	C247.559265,1899.410645 238.225113,1901.192993 228.308685,1906.943481 
z"/>
<path fill="#605146" opacity="1.000000" stroke="none" 
	d="
M1300.485107,2019.973145 
	C1300.485107,2028.584351 1300.485107,2036.201294 1300.485107,2044.299194 
	C1286.742432,2044.299194 1273.862061,2044.299194 1260.431030,2044.299194 
	C1260.431030,1987.695557 1260.431030,1931.499023 1260.431030,1874.465698 
	C1262.720093,1874.216675 1265.227173,1873.712891 1267.735229,1873.707397 
	C1290.401245,1873.656860 1313.067261,1873.685303 1335.733398,1873.707886 
	C1348.808716,1873.720825 1361.636230,1875.337036 1374.064453,1879.608521 
	C1393.930176,1886.436279 1405.902222,1899.694092 1407.647461,1921.100830 
	C1409.402710,1942.631348 1399.430298,1960.109253 1379.917847,1970.061646 
	C1376.674805,1971.715820 1373.336914,1973.183838 1369.182739,1975.143555 
	C1384.698486,1997.994019 1399.975586,2020.492920 1416.473755,2044.790161 
	C1405.276489,2044.790161 1396.047363,2044.917114 1386.822998,2044.764160 
	C1367.015991,2044.435791 1373.094482,2047.632812 1362.490234,2031.636230 
	C1351.264771,2014.702148 1340.362183,1997.553955 1329.220459,1980.347656 
	C1320.098267,1980.347656 1311.148804,1980.347656 1300.804443,1980.347656 
	C1300.132812,1993.290527 1300.650269,2006.149902 1300.485107,2019.973145 
M1354.010010,1904.451172 
	C1336.586060,1898.634155 1318.806274,1900.565430 1300.853027,1900.705444 
	C1300.853027,1918.568848 1300.853027,1935.116455 1300.853027,1952.591553 
	C1314.779419,1953.261475 1328.321899,1953.510864 1341.823120,1951.709961 
	C1345.392090,1951.233765 1348.927734,1949.941162 1352.284790,1948.554199 
	C1361.780884,1944.631226 1367.048828,1937.388306 1367.667603,1927.135132 
	C1368.260498,1917.314941 1364.717651,1909.556763 1354.010010,1904.451172 
z"/>
<path fill="#615248" opacity="1.000000" stroke="none" 
	d="
M2909.015137,2044.797607 
	C2904.798584,2044.874634 2902.059570,2044.305054 2902.378174,2040.000000 
	C2902.476318,2038.675049 2902.381836,2037.336304 2902.381836,2036.003784 
	C2902.382080,1984.369507 2902.382812,1932.735229 2902.383545,1881.100952 
	C2902.383545,1879.140015 2902.383545,1877.179077 2902.383545,1874.637939 
	C2904.744873,1874.260254 2906.596924,1873.708740 2908.449219,1873.706665 
	C2928.103027,1873.684937 2947.772217,1873.304443 2967.404541,1873.975342 
	C2977.642822,1874.325317 2988.027588,1875.698608 2997.981689,1878.112427 
	C3036.580322,1887.473267 3057.697266,1913.062256 3059.400146,1952.732666 
	C3059.823486,1962.598511 3058.957764,1972.813599 3056.795654,1982.443970 
	C3048.997559,2017.175659 3024.992920,2035.051636 2991.635742,2041.737427 
	C2980.945312,2043.880249 2969.831299,2044.352539 2958.884521,2044.669800 
	C2942.574951,2045.142456 2926.241699,2044.798950 2909.015137,2044.797607 
M2968.892578,1901.687622 
	C2960.714355,1901.315308 2952.536377,1900.942871 2944.212891,1900.563965 
	C2944.212891,1940.170410 2944.212891,1978.311768 2944.212891,2016.949585 
	C2957.448730,2018.069946 2969.981934,2017.309326 2982.172119,2013.726807 
	C3000.793457,2008.253906 3011.930908,1995.610474 3016.001221,1976.710083 
	C3018.557861,1964.838989 3018.577393,1952.960938 3016.164307,1941.028442 
	C3012.385498,1922.339600 3001.509033,1910.078369 2983.320312,1904.468750 
	C2979.214111,1903.202515 2974.873047,1902.698364 2968.892578,1901.687622 
z"/>
<path fill="#615248" opacity="1.000000" stroke="none" 
	d="
M1131.892944,1907.457764 
	C1114.808472,1917.876953 1107.034790,1933.075928 1105.814575,1951.789551 
	C1105.340576,1959.061279 1105.382324,1966.542847 1106.536743,1973.711914 
	C1110.285278,1996.991577 1124.703735,2011.599854 1148.073975,2016.541016 
	C1160.315308,2019.129150 1172.531250,2019.245605 1184.581787,2015.285156 
	C1189.199585,2013.767456 1191.625122,2011.105469 1191.387695,2005.757202 
	C1190.993896,1996.885010 1191.280640,1987.982788 1191.280640,1978.293701 
	C1178.811157,1978.293701 1167.570068,1978.293701 1155.712891,1978.293701 
	C1155.712891,1968.662109 1155.712891,1959.843994 1155.712891,1950.542969 
	C1179.598389,1950.542969 1203.094727,1950.542969 1227.129272,1950.542969 
	C1227.381104,1952.468750 1227.763062,1954.041626 1227.766113,1955.615234 
	C1227.807739,1977.281006 1227.616943,1998.949463 1227.927124,2020.610840 
	C1228.004272,2026.001587 1226.129028,2029.194458 1221.677124,2031.899048 
	C1197.851440,2046.373169 1171.885986,2050.530518 1144.760010,2046.880493 
	C1133.682129,2045.389771 1122.452148,2042.385620 1112.190918,2037.976440 
	C1084.179321,2025.939941 1068.224731,2003.828491 1064.603394,1973.784668 
	C1063.232056,1962.406250 1064.151611,1950.432007 1066.013184,1939.054321 
	C1069.261230,1919.205200 1079.923584,1903.249390 1095.809204,1890.909790 
	C1127.238037,1866.496460 1177.652100,1863.173096 1211.944580,1883.303711 
	C1216.157227,1885.776611 1219.998413,1888.882446 1224.014038,1891.696533 
	C1216.668213,1899.211914 1209.982056,1906.052368 1202.841431,1913.357910 
	C1180.774292,1897.630493 1157.253662,1895.015015 1131.892944,1907.457764 
z"/>
<path fill="#615247" opacity="1.000000" stroke="none" 
	d="
M1676.308838,1876.259521 
	C1676.471802,1906.882446 1676.248169,1936.533325 1676.656616,1966.175537 
	C1676.783936,1975.417847 1677.650024,1984.879761 1679.888672,1993.812500 
	C1683.773315,2009.312744 1694.288452,2017.095215 1710.187256,2018.085571 
	C1712.511597,2018.230469 1714.849854,2018.236694 1717.179688,2018.194946 
	C1738.159302,2017.819092 1750.680786,2006.976685 1753.738403,1986.057373 
	C1754.649292,1979.824341 1754.793335,1973.440308 1754.819336,1967.123535 
	C1754.931641,1939.808105 1754.870239,1912.492065 1754.872070,1885.176147 
	C1754.872314,1881.588501 1754.872192,1878.000854 1754.872192,1874.050659 
	C1768.254761,1874.050659 1780.496582,1874.050659 1793.322632,1874.050659 
	C1793.600342,1876.395386 1794.086304,1878.602295 1794.089111,1880.809570 
	C1794.126953,1911.123535 1794.543457,1941.447632 1793.848022,1971.745850 
	C1793.599609,1982.578613 1791.730591,1993.676025 1788.657837,2004.078491 
	C1782.540894,2024.786377 1768.074707,2037.978882 1747.388306,2043.841431 
	C1726.099854,2049.874512 1704.570557,2049.861572 1683.275146,2043.870850 
	C1661.808838,2037.832153 1647.395752,2023.929810 1640.803467,2002.602051 
	C1638.463867,1995.032959 1636.487183,1987.001343 1636.379761,1979.153076 
	C1635.906372,1944.539795 1636.175293,1909.916504 1636.175293,1873.954224 
	C1646.363159,1873.320801 1656.556396,1873.687744 1666.712036,1873.744141 
	C1669.866089,1873.761597 1673.014893,1874.743652 1676.308838,1876.259521 
z"/>
<path fill="#615348" opacity="1.000000" stroke="none" 
	d="
M639.965088,1970.215576 
	C623.711243,1970.215576 608.449829,1970.215576 592.535278,1970.215576 
	C592.535278,1985.486572 592.535278,1999.982544 592.535278,2015.846069 
	C606.486084,2016.209717 620.671509,2015.972046 634.844421,2016.013184 
	C649.151306,2016.054688 663.458435,2016.022339 678.579712,2016.022339 
	C678.579712,2025.602905 678.579712,2034.650757 678.579712,2044.252686 
	C636.202209,2044.252686 594.066711,2044.252686 551.371826,2044.252686 
	C551.371826,1987.319458 551.371826,1930.885010 551.371826,1874.054932 
	C592.858948,1874.054932 633.762451,1874.054932 675.396729,1874.054932 
	C675.396729,1882.960083 675.396729,1891.761841 675.396729,1901.671143 
	C648.103394,1901.671143 620.650330,1901.671143 592.543701,1901.671143 
	C592.543701,1915.236938 592.543701,1927.732300 592.543701,1941.489014 
	C615.828247,1941.489014 639.265747,1941.489014 663.165344,1941.489014 
	C663.165344,1951.545776 663.165344,1960.351318 663.165344,1970.215576 
	C655.440247,1970.215576 648.198914,1970.215576 639.965088,1970.215576 
z"/>
<path fill="#615247" opacity="1.000000" stroke="none" 
	d="
M2785.679199,1927.844604 
	C2785.738037,1932.146362 2785.762695,1935.473755 2785.886719,1938.797607 
	C2785.908936,1939.400146 2786.337891,1939.987427 2786.948730,1941.491699 
	C2809.753174,1941.491699 2832.937988,1941.491699 2856.741699,1941.491699 
	C2856.741699,1951.215820 2856.741699,1960.030762 2856.741699,1969.849365 
	C2833.439209,1969.849365 2810.304932,1969.849365 2786.433350,1969.849365 
	C2786.433350,1985.544067 2786.433350,2000.267578 2786.433350,2015.754395 
	C2814.849609,2015.754395 2843.046631,2015.754395 2872.351074,2015.754395 
	C2873.411377,2025.484497 2873.103271,2034.535522 2872.491943,2044.204224 
	C2829.931641,2044.204224 2787.809814,2044.204224 2745.064941,2044.204224 
	C2745.064941,1987.482056 2745.064941,1931.095825 2745.064941,1874.186035 
	C2786.610352,1874.186035 2827.728516,1874.186035 2869.391602,1874.186035 
	C2869.391602,1883.398926 2869.391602,1892.183716 2869.391602,1901.720215 
	C2841.715332,1901.720215 2814.522461,1901.720215 2786.961670,1901.720215 
	C2784.524902,1910.449951 2786.216797,1918.735352 2785.679199,1927.844604 
z"/>
<path fill="#615248" opacity="1.000000" stroke="none" 
	d="
M826.250000,1883.657104 
	C830.427612,1886.434204 833.960999,1888.863037 838.566101,1892.028564 
	C831.526367,1899.404663 825.024170,1906.217651 819.161438,1912.360474 
	C808.332520,1908.371826 798.643921,1904.086792 788.542969,1901.292358 
	C779.191956,1898.705322 769.386963,1898.831787 759.946838,1901.790894 
	C756.828552,1902.768188 753.627991,1904.130371 751.060242,1906.094604 
	C743.385681,1911.965454 743.009949,1922.502930 750.654846,1928.354370 
	C755.049255,1931.717773 760.377625,1934.109009 765.608093,1936.083130 
	C778.674011,1941.014526 792.031128,1945.180542 805.057678,1950.207397 
	C812.151001,1952.944702 819.287598,1956.094116 825.577209,1960.296143 
	C848.591187,1975.671265 851.800903,2006.278931 832.277466,2025.990356 
	C826.780884,2031.539917 819.968140,2036.681885 812.775635,2039.508057 
	C771.327209,2055.793945 732.737549,2048.657959 694.938965,2023.403320 
	C703.307129,2014.995972 710.871277,2007.396484 718.621521,1999.610107 
	C730.730530,2007.931885 743.051453,2014.356812 757.034973,2016.937256 
	C766.956116,2018.768066 776.891296,2019.127319 786.696472,2016.307373 
	C789.541626,2015.489014 792.429138,2014.408325 794.923035,2012.849243 
	C805.591492,2006.179688 806.006531,1992.557617 795.511536,1985.649536 
	C790.845093,1982.578003 785.503967,1980.383057 780.239990,1978.397949 
	C768.727539,1974.056030 756.912537,1970.486816 745.522888,1965.859009 
	C737.565857,1962.626221 729.475342,1959.047729 722.543457,1954.087646 
	C697.849915,1936.419067 697.497375,1904.999512 721.417847,1886.265625 
	C735.620911,1875.142334 752.352600,1871.077393 769.941162,1870.309204 
	C789.635620,1869.449219 808.289368,1873.672729 826.250000,1883.657104 
z"/>
<path fill="#605146" opacity="1.000000" stroke="none" 
	d="
M1857.936523,2044.649902 
	C1848.986084,2044.650146 1841.029053,2044.650146 1832.392578,2044.650146 
	C1832.392578,1987.659180 1832.392578,1931.256226 1832.392578,1874.907837 
	C1833.037598,1874.527954 1833.582642,1873.926270 1834.127441,1873.926514 
	C1860.763428,1873.934937 1887.429443,1873.277954 1914.021606,1874.386230 
	C1925.427979,1874.861328 1937.072998,1877.911499 1947.914062,1881.754028 
	C1965.225586,1887.890137 1975.886475,1900.594116 1978.010620,1919.336060 
	C1980.319336,1939.706543 1974.553345,1956.911011 1957.206299,1969.111084 
	C1946.923584,1976.342407 1935.307373,1980.621216 1922.949707,1981.914185 
	C1910.076904,1983.261108 1897.072754,1983.374023 1884.122437,1983.944580 
	C1880.542847,1984.102295 1876.950439,1983.968750 1872.442261,1983.968750 
	C1872.442261,2004.402466 1872.442261,2023.894409 1872.442261,2044.649780 
	C1867.341797,2044.649780 1863.135864,2044.649780 1857.936523,2044.649902 
M1879.311523,1956.698730 
	C1888.599121,1956.539307 1897.942017,1956.938354 1907.154663,1956.023804 
	C1913.290527,1955.414795 1919.661133,1953.796631 1925.185669,1951.107422 
	C1936.581177,1945.560547 1939.273926,1935.177734 1938.230469,1923.393433 
	C1937.286865,1912.737549 1930.924927,1906.638184 1921.168091,1903.783203 
	C1905.347900,1899.154297 1889.218506,1900.324707 1872.281494,1900.759521 
	C1872.281494,1918.557129 1872.307983,1935.415771 1872.260376,1952.274170 
	C1872.250244,1955.885498 1874.338013,1956.761963 1879.311523,1956.698730 
z"/>
<path fill="#605146" opacity="1.000000" stroke="none" 
	d="
M86.109390,1902.019775 
	C79.868347,1902.019775 74.610939,1902.019775 68.790863,1902.019775 
	C68.790863,1917.040894 68.790863,1931.156982 68.790863,1946.237305 
	C92.584198,1946.237305 116.070488,1946.237305 140.185425,1946.237305 
	C140.185425,1956.328857 140.185425,1965.466675 140.185425,1975.562012 
	C116.251343,1975.562012 92.770882,1975.562012 68.288612,1975.562012 
	C68.288612,1998.956909 68.288612,2021.431885 68.288612,2044.336182 
	C54.389355,2044.336182 41.514145,2044.336182 28.134308,2044.336182 
	C28.134308,1987.513672 28.134308,1931.096558 28.134308,1874.173828 
	C69.741798,1874.173828 110.895164,1874.173828 152.743164,1874.173828 
	C152.743164,1883.079224 152.743164,1891.872314 152.743164,1902.019775 
	C130.766174,1902.019775 108.929596,1902.019775 86.109390,1902.019775 
z"/>
<path fill="#615348" opacity="1.000000" stroke="none" 
	d="
M2715.571777,1873.659668 
	C2718.458252,1873.835083 2720.394531,1874.009766 2722.869629,1874.233154 
	C2722.869629,1883.365356 2722.869629,1892.156982 2722.869629,1901.850586 
	C2703.910645,1901.850586 2685.418457,1901.850586 2666.002197,1901.850586 
	C2666.002197,1949.493896 2666.002197,1996.256104 2666.002197,2042.701294 
	C2658.163086,2045.281616 2635.031982,2045.625000 2624.228271,2043.447876 
	C2624.228271,1996.800659 2624.228271,1949.986816 2624.228271,1902.151123 
	C2605.014404,1902.151123 2586.547607,1902.151123 2567.594238,1902.151123 
	C2567.594238,1892.270630 2567.594238,1883.420776 2567.594238,1873.659180 
	C2616.904785,1873.659180 2665.763184,1873.659180 2715.571777,1873.659668 
z"/>
<path fill="#5F5045" opacity="1.000000" stroke="none" 
	d="
M904.000000,1873.678223 
	C936.929688,1873.678101 968.859436,1873.678101 1001.478394,1873.678101 
	C1001.478394,1883.044922 1001.478394,1891.839355 1001.478394,1901.848389 
	C982.791931,1901.848389 964.023743,1901.848389 944.341064,1901.848389 
	C944.341064,1949.828491 944.341064,1996.617920 944.341064,2044.019531 
	C930.601257,2044.019531 917.800537,2044.019531 904.051025,2044.019531 
	C904.051025,1997.197021 904.051025,1950.402588 904.051025,1902.413818 
	C884.713013,1901.446899 866.197449,1902.460327 846.921265,1901.780273 
	C846.921265,1892.855469 846.921265,1884.071045 846.921265,1874.483521 
	C855.966919,1872.733765 865.543701,1873.939819 875.028198,1873.724487 
	C884.347656,1873.512817 893.675720,1873.678223 904.000000,1873.678223 
z"/>
<path fill="#5F5046" opacity="1.000000" stroke="none" 
	d="
M2083.881836,1873.674561 
	C2087.779053,1873.674561 2090.687988,1873.674561 2094.613525,1873.674561 
	C2094.613525,1921.425537 2094.613525,1968.193359 2094.613525,2015.768311 
	C2122.477783,2015.768311 2149.327881,2015.768311 2176.927246,2015.768311 
	C2176.927246,2025.347168 2176.927246,2034.144043 2176.927246,2042.997925 
	C2170.205078,2045.028931 2067.546875,2045.624146 2054.509521,2043.575439 
	C2054.509521,1987.525513 2054.509521,1931.385254 2054.509521,1874.484009 
	C2063.833740,1872.781006 2073.410156,1874.075928 2083.881836,1873.674561 
z"/>
<path fill="#635449" opacity="1.000000" stroke="none" 
	d="
M2504.387207,2005.998535 
	C2504.387207,1961.739990 2504.387207,1918.481201 2504.387207,1874.052856 
	C2518.094727,1873.265625 2531.215088,1873.783936 2544.993652,1873.679321 
	C2544.993652,1930.779419 2544.993652,1987.215820 2544.993652,2044.238159 
	C2531.658936,2044.238159 2518.497314,2044.238159 2504.386963,2044.238159 
	C2504.386963,2031.485352 2504.386963,2019.241821 2504.387207,2005.998535 
z"/>
<path fill="#5F5045" opacity="1.000000" stroke="none" 
	d="
M2201.590820,1884.146240 
	C2201.737793,1880.268921 2201.884521,1877.378052 2202.047607,1874.167480 
	C2215.525146,1874.167480 2228.328125,1874.167480 2241.639160,1874.167480 
	C2241.639160,1930.760254 2241.639160,1986.869629 2241.639160,2043.810303 
	C2228.620361,2043.810303 2215.614014,2043.810303 2201.590820,2043.810303 
	C2201.590820,1990.779907 2201.590820,1937.956299 2201.590820,1884.146240 
z"/>
<path fill="#FCFCFC" opacity="1.000000" stroke="none" 
	d="
M454.951752,1951.955811 
	C441.780334,1952.050537 429.499847,1952.050537 417.123688,1952.050537 
	C415.092682,1945.430054 414.771057,1911.307007 416.857971,1900.788330 
	C431.938385,1900.197754 447.174530,1899.487671 462.222229,1902.507202 
	C474.863586,1905.043823 481.376190,1912.087891 482.132507,1922.834717 
	C483.036896,1935.685425 477.439697,1944.681519 465.440216,1949.251587 
	C462.356934,1950.425781 459.047943,1951.007202 454.951752,1951.955811 
z"/>
<path fill="#FDFDFD" opacity="1.000000" stroke="none" 
	d="
M1563.362305,1933.316406 
	C1567.924927,1950.177490 1568.221680,1966.375854 1563.677246,1982.381104 
	C1555.683472,2010.534302 1529.570557,2024.672729 1502.124268,2016.102173 
	C1488.531128,2011.857544 1479.208740,2002.802124 1473.818604,1989.865479 
	C1465.811035,1970.646973 1465.498413,1950.932983 1472.162964,1931.365234 
	C1478.776489,1911.946411 1494.321899,1900.663452 1514.010376,1899.887207 
	C1536.592285,1898.996948 1552.294800,1908.293823 1561.280640,1927.906372 
	C1561.971680,1929.414795 1562.492188,1931.001465 1563.362305,1933.316406 
z"/>
<path fill="#FDFDFD" opacity="1.000000" stroke="none" 
	d="
M228.953079,1906.549927 
	C238.225113,1901.192993 247.559265,1899.410645 257.424805,1899.856567 
	C276.926697,1900.738159 291.229736,1909.845825 298.634735,1927.864502 
	C307.080933,1948.416870 307.076050,1969.546997 298.279785,1990.033325 
	C290.094482,2009.096436 275.012268,2018.461792 254.162048,2018.208374 
	C233.687866,2017.959595 219.132523,2008.225586 211.317245,1989.583008 
	C202.857269,1969.402588 203.206421,1948.675537 210.893311,1928.251953 
	C214.249802,1919.334229 220.253464,1912.208130 228.953079,1906.549927 
z"/>
<path fill="#FBFAFA" opacity="1.000000" stroke="none" 
	d="
M1354.703491,1904.799561 
	C1364.717651,1909.556763 1368.260498,1917.314941 1367.667603,1927.135132 
	C1367.048828,1937.388306 1361.780884,1944.631226 1352.284790,1948.554199 
	C1348.927734,1949.941162 1345.392090,1951.233765 1341.823120,1951.709961 
	C1328.321899,1953.510864 1314.779419,1953.261475 1300.853027,1952.591553 
	C1300.853027,1935.116455 1300.853027,1918.568848 1300.853027,1900.705444 
	C1318.806274,1900.565430 1336.586060,1898.634155 1354.703491,1904.799561 
z"/>
<path fill="#FDFDFD" opacity="1.000000" stroke="none" 
	d="
M2969.766357,1901.765503 
	C2974.873047,1902.698364 2979.214111,1903.202515 2983.320312,1904.468750 
	C3001.509033,1910.078369 3012.385498,1922.339600 3016.164307,1941.028442 
	C3018.577393,1952.960938 3018.557861,1964.838989 3016.001221,1976.710083 
	C3011.930908,1995.610474 3000.793457,2008.253906 2982.172119,2013.726807 
	C2969.981934,2017.309326 2957.448730,2018.069946 2944.212891,2016.949585 
	C2944.212891,1978.311768 2944.212891,1940.170410 2944.212891,1900.563965 
	C2952.536377,1900.942871 2960.714355,1901.315308 2969.766357,1901.765503 
z"/>
<path fill="#FBFBFB" opacity="1.000000" stroke="none" 
	d="
M1878.343872,1956.691162 
	C1874.338013,1956.761963 1872.250244,1955.885498 1872.260376,1952.274170 
	C1872.307983,1935.415771 1872.281494,1918.557129 1872.281494,1900.759521 
	C1889.218506,1900.324707 1905.347900,1899.154297 1921.168091,1903.783203 
	C1930.924927,1906.638184 1937.286865,1912.737549 1938.230469,1923.393433 
	C1939.273926,1935.177734 1936.581177,1945.560547 1925.185669,1951.107422 
	C1919.661133,1953.796631 1913.290527,1955.414795 1907.154663,1956.023804 
	C1897.942017,1956.938354 1888.599121,1956.539307 1878.343872,1956.691162 
z"/>
</svg>